<?xml version="1.0" encoding="utf-8"?>
<!-- Generator: Adobe Illustrator 27.5.0, SVG Export Plug-In . SVG Version: 6.00 Build 0)  -->
<svg version="1.1" id="Capa_2_00000120544029560277094100000004813114418926887577_"
	 xmlns="http://www.w3.org/2000/svg" xmlns:xlink="http://www.w3.org/1999/xlink" x="0px" y="0px" width="81.8px" height="81.8px"
	 viewBox="0 0 81.8 81.8" style="enable-background:new 0 0 81.8 81.8;" xml:space="preserve">
<style type="text/css">
	.st0{fill:#FFFFFF;}
	.st1{fill:#00377D;}
</style>
<g id="Capa_1-2">
	<g>
		<path class="st0" d="M41,81.8h-0.2C18.3,81.8,0,63.5,0,41v-0.2C0,18.3,18.3,0,40.8,0H41c22.5,0,40.8,18.3,40.8,40.8V41
			C81.8,63.5,63.5,81.8,41,81.8z M40.8,2.8c-21,0-38,17.1-38,38V41c0,21,17,38,38,38H41c21,0,38-17,38-38v-0.2c0-21-17-38-38-38
			L40.8,2.8L40.8,2.8z"/>
		<path class="st1" d="M42.1,32.4v2.3h8.3l-2.2,5.9h-5.8v22.6h-8.2V40.6H29v-5.9h5.3v-2.4c0-3.6,1.1-6.6,3.2-8.6
			c2.1-2.1,5.3-3.2,9.2-3.2c2.5,0,4.9,0.5,6.5,1.3l-2,5.5c-1.1-0.5-2.3-0.8-3.5-0.8C44,26.5,42.1,28.6,42.1,32.4L42.1,32.4z"/>
	</g>
</g>
</svg>
