<?xml version="1.0" encoding="utf-8"?>
<!-- Generator: Adobe Illustrator 27.5.0, SVG Export Plug-In . SVG Version: 6.00 Build 0)  -->
<svg version="1.1" id="Capa_2_00000035499992527722432190000015110840289605197226_"
	 xmlns="http://www.w3.org/2000/svg" xmlns:xlink="http://www.w3.org/1999/xlink" x="0px" y="0px" width="81.8px" height="81.8px"
	 viewBox="0 0 81.8 81.8" style="enable-background:new 0 0 81.8 81.8;" xml:space="preserve">
<style type="text/css">
	.st0{fill:#FFFFFF;}
	.st1{fill:#00377D;}
</style>
<g id="Capa_1-2">
	<g>
		<path class="st0" d="M41,81.8h-0.2C18.3,81.8,0,63.5,0,41v-0.2C0,18.3,18.3,0,40.8,0H41c22.5,0,40.8,18.3,40.8,40.8V41
			C81.8,63.4,63.5,81.7,41,81.8L41,81.8z M40.8,2.8c-21,0-38,17.1-38,38V41c0,21,17,38,38,38H41c21,0,38-17,38-38v-0.2
			c0-21-17-38-38-38L40.8,2.8L40.8,2.8z"/>
		<g>
			<path class="st1" d="M23.2,27.7c-0.9-0.9-1.4-1.9-1.4-3.2s0.5-2.4,1.4-3.2c0.9-0.9,2.1-1.3,3.5-1.3s2.6,0.4,3.5,1.3
				s1.4,1.9,1.4,3.2s-0.5,2.3-1.4,3.2c-0.9,0.9-2.1,1.3-3.5,1.3S24.2,28.5,23.2,27.7z M30.9,32.6v26.2h-8.3V32.6H30.9z"/>
			<path class="st1" d="M58.5,35.2c1.8,2,2.7,4.6,2.7,8.1v15.1h-7.9v-14c0-1.7-0.5-3.1-1.3-4S49.9,39,48.4,39s-2.7,0.5-3.6,1.4
				c-0.9,1-1.3,2.3-1.3,4v14h-7.9V32.5h7.9v3.4c0.8-1.1,1.9-2,3.2-2.7s2.9-1,4.6-1C54.3,32.2,56.7,33.2,58.5,35.2L58.5,35.2z"/>
		</g>
	</g>
</g>
</svg>
