<?xml version="1.0" encoding="utf-8"?>
<!-- Generator: Adobe Illustrator 27.5.0, SVG Export Plug-In . SVG Version: 6.00 Build 0)  -->
<svg version="1.1" id="Capa_2_00000183243794825202449260000006045595297148123051_"
	 xmlns="http://www.w3.org/2000/svg" xmlns:xlink="http://www.w3.org/1999/xlink" x="0px" y="0px" width="81.8px" height="81.8px"
	 viewBox="0 0 81.8 81.8" style="enable-background:new 0 0 81.8 81.8;" xml:space="preserve">
<style type="text/css">
	.st0{fill:#FFFFFF;}
	.st1{fill:#00377D;}
</style>
<g id="Capa_1-2">
	<g>
		<path class="st0" d="M41,81.8h-0.2C18.3,81.8,0,63.5,0,41v-0.2C0,18.3,18.3,0,40.8,0H41c22.5,0,40.8,18.3,40.8,40.8V41
			C81.8,63.5,63.5,81.8,41,81.8z M40.8,2.8c-21,0-38,17.1-38,38V41c0,21,17,38,38,38H41c21,0,38-17,38-38v-0.2c0-21-17-38-38-38
			L40.8,2.8L40.8,2.8z"/>
		<g>
			<path class="st1" d="M51.4,20.7h-21c-5.8,0-10.5,4.7-10.5,10.5v19.2c0,5.8,4.7,10.5,10.5,10.5h21c5.8,0,10.5-4.7,10.5-10.5V31.3
				C61.9,25.5,57.2,20.7,51.4,20.7z M23.6,31.3c0-3.8,3.1-6.8,6.8-6.8h21c3.8,0,6.8,3.1,6.8,6.8v19.2c0,3.8-3.1,6.8-6.8,6.8h-21
				c-3.8,0-6.8-3.1-6.8-6.8C23.6,50.5,23.6,31.3,23.6,31.3z"/>
			<path class="st1" d="M40.9,50.7c5.4,0,9.8-4.4,9.8-9.8s-4.4-9.8-9.8-9.8s-9.8,4.4-9.8,9.8S35.5,50.7,40.9,50.7z M40.9,34.8
				c3.3,0,6.1,2.7,6.1,6.1S44.2,47,40.9,47s-6.1-2.7-6.1-6.1S37.5,34.8,40.9,34.8z"/>
			<path class="st1" d="M51.6,32.7c1.5,0,2.6-1.2,2.6-2.6s-1.2-2.6-2.6-2.6S49,28.7,49,30.1S50.1,32.7,51.6,32.7z"/>
		</g>
	</g>
</g>
</svg>
