<?xml version="1.0" encoding="utf-8"?>
<!-- Generator: Adobe Illustrator 27.5.0, SVG Export Plug-In . SVG Version: 6.00 Build 0)  -->
<svg version="1.1" id="Capa_2_00000123418032925891752030000006571925642500017845_"
	 xmlns="http://www.w3.org/2000/svg" xmlns:xlink="http://www.w3.org/1999/xlink" x="0px" y="0px" width="81.8px" height="81.8px"
	 viewBox="0 0 81.8 81.8" style="enable-background:new 0 0 81.8 81.8;" xml:space="preserve">
<style type="text/css">
	.st0{fill:#FFFFFF;}
	.st1{fill:#00377D;}
</style>
<g id="Capa_1-2">
	<g>
		<path class="st0" d="M41,81.8h-0.2C18.3,81.8,0,63.5,0,41v-0.2C0,18.3,18.3,0,40.8,0H41c22.5,0,40.8,18.3,40.8,40.8V41
			C81.7,63.5,63.4,81.8,41,81.8z M40.8,2.8c-21,0-38,17.1-38,38V41c0,21,17,38,38,38H41c21,0,38-17,38-38v-0.2c0-21-17-38-38-38
			L40.8,2.8L40.8,2.8z"/>
		<path class="st1" d="M61,30v7.5c-1.3-0.1-3-0.4-4.9-1.1c-2.5-0.9-4.3-2.1-5.5-3.1v15.1l0,0c0,0.3,0,0.6,0,0.9
			c0,7.5-6.1,13.6-13.6,13.6s-13.6-6.1-13.6-13.6S29.5,35.7,37,35.7c0.7,0,1.5,0.1,2.2,0.2v7.3c-0.7-0.2-1.4-0.4-2.2-0.4
			c-3.5,0-6.4,2.9-6.4,6.4s2.9,6.4,6.4,6.4s6.4-2.9,6.4-6.4c0-0.1,0-0.3,0-0.4V19.5h7.5c0,0.6,0,1.3,0.1,1.9c0,1.2,0.5,2.4,1.3,3.4
			c0.9,1.1,2.2,2.5,4.1,3.5C58.2,29.3,59.8,29.8,61,30z"/>
	</g>
</g>
</svg>
