<?xml version="1.0" encoding="utf-8"?>
<!-- Generator: Adobe Illustrator 27.8.1, SVG Export Plug-In . SVG Version: 6.00 Build 0)  -->
<svg version="1.1" id="Capa_2_00000057126661210707911410000007672256219129037232_"
	 xmlns="http://www.w3.org/2000/svg" xmlns:xlink="http://www.w3.org/1999/xlink" x="0px" y="0px" width="81.8px" height="81.8px"
	 viewBox="0 0 81.8 81.8" style="enable-background:new 0 0 81.8 81.8;" xml:space="preserve">
<style type="text/css">
	.st0{fill:#FFFFFF;}
	.st1{fill:#00377D;}
</style>
<g id="Capa_1-2">
	<g>
		<path class="st0" d="M41,81.8h-0.2C18.3,81.8,0,63.5,0,41v-0.2C0,18.3,18.3,0,40.8,0H41c22.5,0,40.8,18.3,40.8,40.8V41
			C81.7,63.5,63.4,81.8,41,81.8z M40.8,2.8c-21,0-38,17.1-38,38V41c0,21,17,38,38,38H41c21,0,38-17,38-38v-0.2c0-21-17-38-38-38
			L40.8,2.8L40.8,2.8z"/>
		<path class="st1" d="M44.3,38.1l13.5-15.7h-3.2L42.9,36l-9.3-13.6H22.8L36.9,43L22.8,59.4H26L38.4,45l9.9,14.4H59L44.3,38.1
			L44.3,38.1z M40,43.2l-1.4-2L27.1,24.8H32L41.2,38l1.4,2l12,17.1h-4.9L40,43.2L40,43.2z"/>
	</g>
</g>
</svg>
