<?xml version="1.0" encoding="UTF-8"?>
<svg width="37px" height="37px" viewBox="0 0 37 37" version="1.1" xmlns="http://www.w3.org/2000/svg" xmlns:xlink="http://www.w3.org/1999/xlink">
    <!-- Generator: Sketch 63.1 (92452) - https://sketch.com -->
    <title>FB</title>
    <desc>Created with Sketch.</desc>
    <g id="UI" stroke="none" stroke-width="1" fill="none" fill-rule="evenodd">
        <g id="Desktop-HD-Copy" transform="translate(-139.000000, -2804.000000)" fill="#00377D">
            <g id="Group-9" transform="translate(139.000000, 2804.000000)">
                <path d="M34.9574661,0 L2.04182151,0 C0.914046404,0 0,0.914046404 0,2.04182151 L0,34.9574661 C0,36.0852412 0.914046404,37 2.04182151,37 L19.7642053,37 L19.7642053,22.691576 L14.9588717,22.691576 L14.9588717,17.0904592 L19.7642053,17.0904592 L19.7642053,12.9719072 C19.7642053,8.19293347 22.6830269,5.59043035 26.946202,5.59043035 C28.9880235,5.59043035 30.7427361,5.74217772 31.2542601,5.80700876 L31.2542601,10.801136 L28.3147781,10.801136 C25.9951093,10.801136 25.5455666,11.9032637 25.5455666,13.5211899 L25.5455666,17.0904592 L31.0911139,17.0904592 L30.3687109,22.691576 L25.5455666,22.691576 L25.5455666,37 L34.9574661,37 C36.0852412,37 37,36.0852412 37,34.9574661 L37,2.04182151 C37,0.914046404 36.0852412,0 34.9574661,0" id="FB"></path>
            </g>
        </g>
    </g>
</svg>