<?xml version="1.0" encoding="UTF-8"?>
<svg width="37px" height="37px" viewBox="0 0 37 37" version="1.1" xmlns="http://www.w3.org/2000/svg" xmlns:xlink="http://www.w3.org/1999/xlink">
    <!-- Generator: Sketch 63.1 (92452) - https://sketch.com -->
    <title>IN</title>
    <desc>Created with Sketch.</desc>
    <g id="UI" stroke="none" stroke-width="1" fill="none" fill-rule="evenodd">
        <g id="Desktop-HD-Copy" transform="translate(-233.000000, -2804.000000)" fill="#00377D">
            <g id="Group-9" transform="translate(139.000000, 2804.000000)">
                <path d="M108.415769,13.8712643 L113.679019,13.8712643 L113.679019,16.284184 L113.752308,16.284184 C114.485192,14.8952075 116.275423,13.4322282 118.945115,13.4322282 C124.502231,13.4322282 125.528269,17.088965 125.528269,21.8429363 L125.528269,31.5287703 L120.044442,31.5287703 L120.044442,22.9415939 C120.044442,20.8937075 120.006731,18.2602023 117.192596,18.2602023 C114.337192,18.2602023 113.898885,20.4909612 113.898885,22.7935882 L113.898885,31.5287703 L108.415769,31.5287703 L108.415769,13.8712643 Z M102.231077,5.09409977 C103.985019,5.09409977 105.410942,6.5200777 105.410942,8.27479903 C105.410942,10.0316551 103.985019,11.4569214 102.231077,11.4569214 C100.471442,11.4569214 99.0483654,10.0316551 99.0483654,8.27479903 C99.0483654,6.5200777 100.471442,5.09409977 102.231077,5.09409977 L102.231077,5.09409977 Z M99.48525,31.5287703 L104.973346,31.5287703 L104.973346,13.8712643 L99.48525,13.8712643 L99.48525,31.5287703 Z M128.261288,0 L96.7308846,0 C95.2238462,0 94,1.19400746 94,2.66623716 L94,34.3309166 C94,35.8038578 95.2238462,37 96.7308846,37 L128.261288,37 C129.770462,37 131,35.8038578 131,34.3309166 L131,2.66623716 C131,1.19400746 129.770462,0 128.261288,0 L128.261288,0 Z" id="IN"></path>
            </g>
        </g>
    </g>
</svg>