<?xml version="1.0" encoding="UTF-8"?>
<svg width="37px" height="37px" viewBox="0 0 37 37" version="1.1" xmlns="http://www.w3.org/2000/svg" xmlns:xlink="http://www.w3.org/1999/xlink">
    <!-- Generator: Sketch 63.1 (92452) - https://sketch.com -->
    <title>INS</title>
    <desc>Created with Sketch.</desc>
    <g id="UI" stroke="none" stroke-width="1" fill="none" fill-rule="evenodd">
        <g id="Desktop-HD-Copy" transform="translate(-374.000000, -2804.000000)" fill="#00377D">
            <g id="Group-9" transform="translate(139.000000, 2804.000000)">
                <path d="M253.5,13.106331 C250.525769,13.106331 248.106538,15.5256548 248.106538,18.5 C248.106538,21.4743452 250.525769,23.893669 253.5,23.893669 C256.473519,23.893669 258.893462,21.4743452 258.893462,18.5 C258.893462,15.5256548 256.473519,13.106331 253.5,13.106331 L253.5,13.106331 Z M253.5,25.8028001 C249.473404,25.8028001 246.197481,22.526751 246.197481,18.5 C246.197481,14.473249 249.473404,11.1971999 253.5,11.1971999 C257.526596,11.1971999 260.802519,14.473249 260.802519,18.5 C260.802519,22.526751 257.526596,25.8028001 253.5,25.8028001 L253.5,25.8028001 Z M260.980404,11.6269857 L260.815327,11.6269857 C260.254635,11.6269857 259.799962,11.1722951 259.799962,10.6115812 L259.799962,10.4464979 C259.799962,9.88578407 260.254635,9.4310935 260.815327,9.4310935 L260.980404,9.4310935 C261.541096,9.4310935 261.995058,9.88578407 261.995058,10.4464979 L261.995058,10.6115812 C261.995058,11.1722951 261.541096,11.6269857 260.980404,11.6269857 L260.980404,11.6269857 Z M246.446519,7.71337359 C244.388038,7.71337359 242.713077,9.38768799 242.713077,11.4462479 L242.713077,25.5537521 C242.713077,27.612312 244.388038,29.2866264 246.446519,29.2866264 L260.553481,29.2866264 C262.611962,29.2866264 264.286212,27.612312 264.286212,25.5537521 L264.286212,11.4462479 C264.286212,9.38768799 262.611962,7.71337359 260.553481,7.71337359 L246.446519,7.71337359 Z M260.553481,31.1964691 L246.446519,31.1964691 C243.334962,31.1964691 240.804019,28.6647179 240.804019,25.5537521 L240.804019,11.4462479 C240.804019,8.33528213 243.334962,5.80353091 246.446519,5.80353091 L260.553481,5.80353091 C263.664327,5.80353091 266.195269,8.33528213 266.195269,11.4462479 L266.195269,25.5537521 C266.195269,28.6647179 263.664327,31.1964691 260.553481,31.1964691 L260.553481,31.1964691 Z M269.260577,0 L237.730885,0 C236.223846,0 235,1.19400746 235,2.66623716 L235,34.3309166 C235,35.8038578 236.223846,37 237.730885,37 L269.260577,37 C270.770462,37 272,35.8038578 272,34.3309166 L272,2.66623716 C272,1.19400746 270.770462,0 269.260577,0 L269.260577,0 Z" id="INS"></path>
            </g>
        </g>
    </g>
</svg>