<?xml version="1.0" encoding="UTF-8"?>
<svg width="37px" height="37px" viewBox="0 0 37 37" version="1.1" xmlns="http://www.w3.org/2000/svg" xmlns:xlink="http://www.w3.org/1999/xlink">
    <!-- Generator: Sketch 63.1 (92452) - https://sketch.com -->
    <title>TK</title>
    <desc>Created with Sketch.</desc>
    <g id="UI" stroke="none" stroke-width="1" fill="none" fill-rule="evenodd">
        <g id="Desktop-HD-Copy" transform="translate(-421.000000, -2804.000000)" fill="#00377D">
            <g id="Group-9" transform="translate(139.000000, 2804.000000)">
                <path d="M312.410347,16.1975825 C312.194293,16.2184678 311.976799,16.2292705 311.760024,16.2307108 C309.376226,16.2307108 307.153029,15.0294495 305.847341,13.0345492 L305.847341,23.9164785 C305.847341,28.3578325 302.246438,31.9587356 297.805084,31.9587356 C293.36301,31.9587356 289.762827,28.3578325 289.762827,23.9164785 C289.762827,19.4751246 293.36301,15.8742214 297.805084,15.8742214 C297.972886,15.8742214 298.137087,15.888625 298.302009,15.8994277 L298.302009,19.8625818 C298.137087,19.8431369 297.974327,19.8128893 297.805084,19.8128893 C295.537955,19.8128893 293.700055,21.6500701 293.700055,23.9171987 C293.700055,26.1843273 295.537955,28.0215081 297.805084,28.0215081 C300.072213,28.0215081 302.074315,26.2354601 302.074315,23.9683315 L302.113925,5.48777639 L305.905676,5.48777639 C306.262885,8.88846932 309.004613,11.5437753 312.413948,11.7929578 L312.413948,16.1975825 M316.258272,0 L284.726604,0 C283.222867,0 282,1.19189894 282,2.66394815 L282,34.3281299 C282,35.8001791 283.222867,37 284.726604,37 L316.258272,37 C317.769211,37 319,35.8001791 319,34.3281299 L319,2.66394815 C319,1.19189894 317.769211,0 316.258272,0" id="TK"></path>
            </g>
        </g>
    </g>
</svg>