<?xml version="1.0" encoding="UTF-8"?>
<svg width="37px" height="37px" viewBox="0 0 37 37" version="1.1" xmlns="http://www.w3.org/2000/svg" xmlns:xlink="http://www.w3.org/1999/xlink">
    <!-- Generator: Sketch 63.1 (92452) - https://sketch.com -->
    <title>TW</title>
    <desc>Created with Sketch.</desc>
    <g id="UI" stroke="none" stroke-width="1" fill="none" fill-rule="evenodd">
        <g id="Desktop-HD-Copy" transform="translate(-327.000000, -2804.000000)" fill="#00377D">
            <g id="Group-9" transform="translate(139.000000, 2804.000000)">
                <path d="M215.722633,13.7720142 C215.737757,13.9743849 215.737757,14.1846777 215.737757,14.3870484 C215.737757,20.6814271 210.947836,27.9329259 202.1926,27.9329259 C199.504886,27.9329259 197.004418,27.1457685 194.893569,25.7983105 C195.267343,25.8379204 195.649038,25.8609662 196.030734,25.8609662 C198.258253,25.8609662 200.315089,25.0982949 201.943417,23.8278963 C199.863536,23.7890065 198.102694,22.4105808 197.495582,20.5172259 C197.783654,20.5719597 198.08757,20.6029274 198.391486,20.6029274 C198.827916,20.6029274 199.247781,20.5489139 199.645321,20.4394464 C197.471816,20.003017 195.828363,18.0722127 195.828363,15.7661943 L195.828363,15.7114606 C196.467164,16.0621886 197.207509,16.2796831 197.986025,16.3034491 C196.708424,15.4543561 195.867253,13.9902289 195.867253,12.3388547 C195.867253,11.466716 196.101312,10.6485908 196.513975,9.94713485 C198.858163,12.8292977 202.364003,14.7219324 206.320675,14.9250234 C206.242896,14.5742954 206.204006,14.2077235 206.204006,13.8339497 C206.204006,11.2088913 208.330699,9.07499611 210.96368,9.07499611 C212.334183,9.07499611 213.564972,9.6590626 214.437111,10.5780131 C215.520262,10.3677203 216.540758,9.97090081 217.459709,9.42572407 C217.101779,10.5398435 216.345589,11.466716 215.363983,12.0579843 C216.330466,11.941315 217.249416,11.6849307 218.098509,11.3104368 C217.459709,12.260355 216.657428,13.101526 215.722633,13.7720142 M222.258272,0 L190.725884,0 C189.222867,0 188,1.19189894 188,2.66394815 L188,34.3281299 C188,35.8001791 189.222867,37 190.725884,37 L222.258272,37 C223.769211,37 225,35.8001791 225,34.3281299 L225,2.66394815 C225,1.19189894 223.769211,0 222.258272,0" id="TW"></path>
            </g>
        </g>
    </g>
</svg>