<?xml version="1.0" encoding="utf-8"?>
<!-- Generator: Adobe Illustrator 24.3.0, SVG Export Plug-In . SVG Version: 6.00 Build 0)  -->
<svg version="1.1" id="Capa_1" xmlns="http://www.w3.org/2000/svg" xmlns:xlink="http://www.w3.org/1999/xlink" x="0px" y="0px"
	 viewBox="0 0 368 43" style="enable-background:new 0 0 368 43;" xml:space="preserve">
<style type="text/css">
	.st0{fill:#00377D;}
</style>
<desc>Created with Sketch.</desc>
<g id="UI">
	<g id="Desktop-HD-Copy" transform="translate(-53.000000, -42.000000)">
		<g id="conectados" transform="translate(53.000000, 42.000000)">
			<path id="Path" class="st0" d="M20.8,35.5c-8.3,0-13.4-6.7-13.4-14.2c0-7.4,4.9-13.7,13.3-13.7c6.3,0,10.9,4.2,10.9,4.2l3.5-5.4
				c0,0-5-5.4-14.7-5.4C8.7,1,0,9.9,0,21.4c0,11.7,8.4,20.7,20.6,20.7c10.1,0,15.6-6.4,15.6-6.4l-3.8-5.2
				C32.4,30.5,27.7,35.5,20.8,35.5z"/>
			<path id="Shape" class="st0" d="M58.7,1C46.9,1,38.1,9.9,38.1,21.3c0,11.7,8.9,20.8,20.6,20.8S79.2,33,79.2,21.3
				C79.2,9.9,70.4,1,58.7,1z M58.7,35.5c-7.3,0-13.1-6.1-13.1-14.2c0-7.8,5.8-13.7,13.1-13.7s13.1,5.8,13.1,13.7
				C71.8,29.5,65.9,35.5,58.7,35.5z"/>
			<path id="Path_1_" class="st0" d="M131.9,24.5h13.4v-6.2l0,0l0,0h-13.4V7.9h16.6V1.7h-23.8v16.6h-7.3V1.7h-7.2v23
				c0,2.4,0.4,6.2,0.4,6.2h-0.1c0,0-1.8-3.9-3.3-6.2l-15.1-23h-7.2v39.8h7.2v-23c0-2.4-0.4-6.2-0.4-6.2h0.1c0,0,1.8,3.9,3.3,6.2
				l15.1,22.9h7.2V24.5h7.3v16.9h24.7v-6.2h-17.5V24.5z"/>
			<path id="Path_2_" class="st0" d="M172,35.5c-8.3,0-13.4-6.7-13.4-14.2c0-7.4,4.9-13.7,13.3-13.7c6.3,0,10.9,4.2,10.9,4.2
				l3.5-5.4c0,0-5-5.4-14.7-5.4c-11.7,0-20.5,8.9-20.5,20.4c0,11.7,8.4,20.7,20.6,20.7c10.1,0,15.6-6.4,15.6-6.4l-3.8-5.2
				C183.5,30.5,178.9,35.5,172,35.5z"/>
			<polygon id="Path_3_" class="st0" points="222.8,1.7 189.5,1.7 189.5,7.9 202.6,7.9 202.6,41.5 209.8,41.5 209.8,7.9 222.8,7.9 
							"/>
			<path id="Shape_1_" class="st0" d="M232.7,1.7l-14,39.8h7.5l3.4-10.2h14l3.4,10.2h7.5l-14-39.8H232.7z M231.2,25.4l3.5-10.6
				c0.8-2.2,1.7-6.2,1.7-6.2h0.1c0,0,0.8,3.9,1.6,6.2l3.5,10.6H231.2z"/>
			<path id="Shape_2_" class="st0" d="M272,1.7h-13.6v39.8H272c12.3,0,20.3-7.4,20.3-20S284.3,1.7,272,1.7z M271.6,35.2h-5.9V7.9
				h5.9c8,0,13.2,4.8,13.2,13.6C284.9,30.5,279.7,35.2,271.6,35.2z"/>
			<path id="Shape_3_" class="st0" d="M317.2,1c-11.7,0-20.6,8.9-20.6,20.3c0,11.7,8.9,20.8,20.6,20.8c11.7,0,20.6-9.1,20.6-20.8
				C337.7,9.9,328.9,1,317.2,1z M317.2,35.5c-7.3,0-13.1-6.1-13.1-14.2c0-7.8,5.8-13.7,13.1-13.7c7.3,0,13.1,5.8,13.1,13.7
				C330.3,29.5,324.5,35.5,317.2,35.5z"/>
			<path id="Path_4_" class="st0" d="M349,12.4c0-2.8,2.6-4.8,6-4.8c5,0,8.8,3.5,8.8,3.5l3.1-5.9c0,0-4-4.3-11.9-4.3
				c-7.6,0-13.3,4.9-13.3,11.5c0,12.2,18.8,11,18.8,18.1c0,3.3-2.7,4.8-5.8,4.8c-5.6,0-9.9-4.2-9.9-4.2l-3.9,5.4
				c0,0,4.9,5.4,13.7,5.4c8.3,0,13.1-5.3,13.1-11.7C367.7,17.8,349,19.5,349,12.4z"/>
		</g>
	</g>
</g>
</svg>
