<?xml version="1.0" encoding="utf-8"?>
<!-- Generator: Adobe Illustrator 27.5.0, SVG Export Plug-In . SVG Version: 6.00 Build 0)  -->
<svg version="1.1" id="Capa_1" xmlns="http://www.w3.org/2000/svg" xmlns:xlink="http://www.w3.org/1999/xlink" x="0px" y="0px"
	 viewBox="0 0 256.4 46" style="enable-background:new 0 0 256.4 46;" xml:space="preserve">
<style type="text/css">
	.st0{fill:#FFFFFF;}
	.st1{fill:url(#SVGID_1_);}
	.st2{fill:url(#SVGID_00000133509254428341024260000000343033924905934245_);}
</style>
<g>
	<path id="Path_00000079485088671824273690000014493674194123321525_" class="st0" d="M13.9,31.8c-5.6,0-9-4.5-9-9.5
		s3.3-9.2,8.9-9.2c4.2,0,7.3,2.8,7.3,2.8l2.3-3.6c0,0-3.3-3.6-9.8-3.6C5.8,8.7,0,14.6,0,22.3c0,7.8,5.6,13.9,13.8,13.9
		c6.8,0,10.4-4.3,10.4-4.3l-2.5-3.5C21.7,28.4,18.5,31.8,13.9,31.8z"/>
	<path id="Shape_00000103963529890906671400000015449024455187165601_" class="st0" d="M39.3,8.7c-7.9,0-13.8,6-13.8,13.6
		c0,7.8,6,13.9,13.8,13.9S53,30.1,53,22.3C53,14.6,47.1,8.7,39.3,8.7z M39.3,31.8c-4.9,0-8.8-4.1-8.8-9.5c0-5.2,3.9-9.2,8.8-9.2
		S48,17,48,22.3C48,27.8,44.1,31.8,39.3,31.8z"/>
	<path id="Path_00000073714288318428716230000000377118732867702673_" class="st0" d="M88.3,24.4h9v-4.1l0,0l0,0h-9v-7h11.1V9.1h-16
		v11.1h-4.9V9.1h-4.8v15.4c0,1.6,0.3,4.1,0.3,4.1h-0.1c0,0-1.2-2.6-2.2-4.1L61.6,9.1h-4.8v26.6h4.8V20.4c0-1.6-0.3-4.1-0.3-4.1h0.1
		c0,0,1.2,2.6,2.2,4.1l10.1,15.3h4.8V24.4h4.9v11.3H100v-4.1H88.3V24.4z"/>
	<path id="Path_00000096050144322640573090000017974862039832358323_" class="st0" d="M115.1,31.8c-5.6,0-9-4.5-9-9.5
		s3.3-9.2,8.9-9.2c4.2,0,7.3,2.8,7.3,2.8l2.3-3.6c0,0-3.3-3.6-9.8-3.6c-7.8,0-13.7,6-13.7,13.7c0,7.8,5.6,13.9,13.8,13.9
		c6.8,0,10.4-4.3,10.4-4.3l-2.5-3.5C122.8,28.4,119.7,31.8,115.1,31.8z"/>
	<polygon id="Path_00000065033587965945685960000004075091120432145331_" class="st0" points="149.1,9.1 126.8,9.1 126.8,13.3 
		135.6,13.3 135.6,35.8 140.4,35.8 140.4,13.3 149.1,13.3 	"/>
	<path id="Shape_00000019676278179771793960000013096269437558526359_" class="st0" d="M155.7,9.1l-9.4,26.6h5l2.3-6.8h9.4l2.3,6.8
		h5l-9.4-26.6C160.9,9.1,155.7,9.1,155.7,9.1z M154.7,25l2.3-7.1c0.5-1.5,1.1-4.1,1.1-4.1h0.1c0,0,0.5,2.6,1.1,4.1l2.3,7.1
		C161.7,25,154.7,25,154.7,25z"/>
	<path id="Shape_00000106830043498032704100000018104217939050894520_" class="st0" d="M182,9.1h-9.1v26.6h9.1
		c8.2,0,13.6-5,13.6-13.4S190.3,9.1,182,9.1z M181.8,31.6h-3.9V13.3h3.9c5.4,0,8.8,3.2,8.8,9.1C190.7,28.4,187.2,31.6,181.8,31.6z"
		/>
	<path id="Path_00000165914916683584066080000011179327583071975598_" class="st0" d="M243.8,16.3c0-1.9,1.7-3.2,4-3.2
		c3.3,0,5.9,2.3,5.9,2.3l2.1-3.9c0,0-2.7-2.9-8-2.9c-5.1,0-8.9,3.3-8.9,7.7c0,8.2,12.6,7.4,12.6,12.1c0,2.2-1.8,3.2-3.9,3.2
		c-3.7,0-6.6-2.8-6.6-2.8l-2.6,3.6c0,0,3.3,3.6,9.2,3.6c5.6,0,8.8-3.5,8.8-7.8C256.4,19.9,243.8,21.1,243.8,16.3z"/>
	<g>
		<path class="st0" d="M216.2,33.9c-6,0-10.9-4.9-10.9-10.9s4.9-10.9,10.9-10.9S227.2,17,227.2,23S222.3,33.9,216.2,33.9z
			 M216.2,15.9c-3.9,0-7.1,3.2-7.1,7.1s3.2,7.1,7.1,7.1c3.9,0,7.1-3.2,7.1-7.1S220.2,15.9,216.2,15.9z"/>
		<radialGradient id="SVGID_1_" cx="219.0467" cy="12.7293" r="18.8297" gradientUnits="userSpaceOnUse">
			<stop  offset="6.676962e-02" style="stop-color:#FFA200"/>
			<stop  offset="1" style="stop-color:#FFBE00"/>
		</radialGradient>
		<path class="st1" d="M201.5,15.7c-0.7,1.5-2.5,2.2-4.1,1.5c-1.5-0.7-2.2-2.5-1.5-4.1c1.2-2.7,2.9-5.1,5.1-7.1
			c2.1-2,4.6-3.5,7.4-4.6c5.8-2.2,11.9-1.8,17.1,0.6c5.1,2.3,9.3,6.5,11.6,12.1l0.8-0.3c6-2.3,5.1-1.7,2.8,5.2
			c-2.7,8.1-1.5,7.7-8.9,3.3c-6.3-3.7-7.4-3.6-1.3-5.8l0.8-0.3c-1.6-4-4.7-7-8.3-8.7c-3.8-1.7-8.2-2-12.4-0.4
			c-2.1,0.8-3.9,1.9-5.4,3.3C203.6,12,202.4,13.8,201.5,15.7z"/>
		<g>
			
				<radialGradient id="SVGID_00000090285824834971841240000018201665182786513558_" cx="213.1398" cy="33.2706" r="18.836" gradientUnits="userSpaceOnUse">
				<stop  offset="0" style="stop-color:#FF8800"/>
				<stop  offset="1" style="stop-color:#FFBE00"/>
			</radialGradient>
			<path style="fill:url(#SVGID_00000090285824834971841240000018201665182786513558_);" d="M201.7,29.4l-0.8,0.3
				c1.6,4,4.7,7,8.3,8.7c3.8,1.7,8.2,2,12.4,0.4c2.1-0.8,3.9-1.9,5.4-3.3c1.6-1.5,2.8-3.2,3.7-5.2c0.7-1.5,2.5-2.2,4.1-1.5
				c1.5,0.7,2.2,2.5,1.5,4.1c-1.2,2.7-2.9,5.1-5.1,7.1c-2.1,2-4.6,3.6-7.4,4.6c-5.8,2.2-11.9,1.8-17.1-0.6
				c-5.1-2.3-9.3-6.5-11.6-12.1l-0.8,0.3c-6,2.3-5.1,1.7-2.8-5.2c2.7-8.1,1.5-7.7,8.9-3.3C206.6,27.3,207.7,27.2,201.7,29.4"/>
		</g>
	</g>
</g>
</svg>
