<?xml version="1.0" encoding="utf-8"?>
<!-- Generator: Adobe Illustrator 24.3.0, SVG Export Plug-In . SVG Version: 6.00 Build 0)  -->
<svg version="1.1" id="Capa_1" xmlns="http://www.w3.org/2000/svg" xmlns:xlink="http://www.w3.org/1999/xlink" x="0px" y="0px"
	 viewBox="0 0 367.7 41.1" style="enable-background:new 0 0 367.7 41.1;" xml:space="preserve">
<style type="text/css">
	.st0{fill:#FFBE00;}
</style>
<g>
	<path class="st0" d="M20.8,34.5c-8.3,0-13.4-6.7-13.4-14.2c0-7.4,4.9-13.7,13.3-13.7c6.3,0,10.9,4.2,10.9,4.2l3.5-5.4
		c0,0-5-5.4-14.7-5.4C8.7,0,0,8.9,0,20.4c0,11.7,8.4,20.7,20.6,20.7c10.1,0,15.6-6.4,15.6-6.4l-3.8-5.2
		C32.4,29.5,27.7,34.5,20.8,34.5z"/>
	<path class="st0" d="M58.7,0C46.9,0,38.1,8.9,38.1,20.3c0,11.7,8.9,20.8,20.6,20.8S79.2,32,79.2,20.3C79.2,8.9,70.4,0,58.7,0z
		 M58.7,34.5c-7.3,0-13.1-6.1-13.1-14.2c0-7.8,5.8-13.7,13.1-13.7s13.1,5.8,13.1,13.7C71.8,28.5,65.9,34.5,58.7,34.5z"/>
	<path class="st0" d="M131.9,23.5h13.4v-6.2l0,0l0,0h-13.4V6.9h16.6V0.7h-23.8v16.6h-7.3V0.7h-7.2v23c0,2.4,0.4,6.2,0.4,6.2h-0.1
		c0,0-1.8-3.9-3.3-6.2l-15.1-23h-7.2v39.8h7.2v-23c0-2.4-0.4-6.2-0.4-6.2h0.1c0,0,1.8,3.9,3.3,6.2l15.1,22.9h7.2V23.5h7.3v16.9h24.7
		v-6.2h-17.5V23.5z"/>
	<path class="st0" d="M172,34.5c-8.3,0-13.4-6.7-13.4-14.2c0-7.4,4.9-13.7,13.3-13.7c6.3,0,10.9,4.2,10.9,4.2l3.5-5.4
		c0,0-5-5.4-14.7-5.4c-11.7,0-20.5,8.9-20.5,20.4c0,11.7,8.4,20.7,20.6,20.7c10.1,0,15.6-6.4,15.6-6.4l-3.8-5.2
		C183.5,29.5,178.9,34.5,172,34.5z"/>
	<polygon class="st0" points="222.8,0.7 189.5,0.7 189.5,6.9 202.6,6.9 202.6,40.5 209.8,40.5 209.8,6.9 222.8,6.9 	"/>
	<path class="st0" d="M232.7,0.7l-14,39.8h7.5l3.4-10.2h14l3.4,10.2h7.5l-14-39.8C240.5,0.7,232.7,0.7,232.7,0.7z M231.2,24.4
		l3.5-10.6c0.8-2.2,1.7-6.2,1.7-6.2h0.1c0,0,0.8,3.9,1.6,6.2l3.5,10.6H231.2z"/>
	<path class="st0" d="M272,0.7h-13.6v39.8H272c12.3,0,20.3-7.4,20.3-20S284.3,0.7,272,0.7z M271.6,34.2h-5.9V6.9h5.9
		c8,0,13.2,4.8,13.2,13.6C284.9,29.5,279.7,34.2,271.6,34.2z"/>
	<path class="st0" d="M317.2,0c-11.7,0-20.6,8.9-20.6,20.3c0,11.7,8.9,20.8,20.6,20.8s20.6-9.1,20.6-20.8C337.7,8.9,328.9,0,317.2,0
		z M317.2,34.5c-7.3,0-13.1-6.1-13.1-14.2c0-7.8,5.8-13.7,13.1-13.7c7.3,0,13.1,5.8,13.1,13.7C330.3,28.5,324.5,34.5,317.2,34.5z"/>
	<path class="st0" d="M349,11.4c0-2.8,2.6-4.8,6-4.8c5,0,8.8,3.5,8.8,3.5l3.1-5.9c0,0-4-4.3-11.9-4.3c-7.6,0-13.3,4.9-13.3,11.5
		c0,12.2,18.8,11,18.8,18.1c0,3.3-2.7,4.8-5.8,4.8c-5.6,0-9.9-4.2-9.9-4.2l-3.9,5.4c0,0,4.9,5.4,13.7,5.4c8.3,0,13.1-5.3,13.1-11.7
		C367.7,16.8,349,18.5,349,11.4z"/>
</g>
</svg>
