<?xml version="1.0" encoding="utf-8"?>
<!-- Generator: Adobe Illustrator 24.1.3, SVG Export Plug-In . SVG Version: 6.00 Build 0)  -->
<svg version="1.1" id="Capa_1" xmlns="http://www.w3.org/2000/svg" xmlns:xlink="http://www.w3.org/1999/xlink" x="0px" y="0px"
	 viewBox="0 0 627 115.8" style="enable-background:new 0 0 627 115.8;" xml:space="preserve">
<style type="text/css">
	.st0{fill:#FFBE00;}
	.st1{fill-rule:evenodd;clip-rule:evenodd;fill:url(#SVGID_1_);}
	.st2{fill-rule:evenodd;clip-rule:evenodd;fill:#FFFFFF;}
	.st3{fill-rule:evenodd;clip-rule:evenodd;fill:url(#SVGID_2_);}
	.st4{fill-rule:evenodd;clip-rule:evenodd;fill:url(#SVGID_3_);}
	.st5{fill-rule:evenodd;clip-rule:evenodd;fill:url(#SVGID_4_);}
	.st6{fill-rule:evenodd;clip-rule:evenodd;fill:url(#SVGID_5_);}
	.st7{fill-rule:evenodd;clip-rule:evenodd;fill:url(#SVGID_6_);}
	.st8{fill-rule:evenodd;clip-rule:evenodd;fill:url(#SVGID_7_);}
	.st9{fill-rule:evenodd;clip-rule:evenodd;fill:url(#SVGID_8_);}
	.st10{fill-rule:evenodd;clip-rule:evenodd;fill:url(#SVGID_9_);}
	.st11{fill-rule:evenodd;clip-rule:evenodd;fill:url(#SVGID_10_);}
	.st12{fill-rule:evenodd;clip-rule:evenodd;fill:url(#SVGID_11_);}
	.st13{fill-rule:evenodd;clip-rule:evenodd;fill:url(#SVGID_12_);}
	.st14{fill-rule:evenodd;clip-rule:evenodd;fill:url(#SVGID_13_);}
	.st15{fill-rule:evenodd;clip-rule:evenodd;fill:url(#SVGID_14_);}
	.st16{fill-rule:evenodd;clip-rule:evenodd;fill:url(#SVGID_15_);}
	.st17{fill-rule:evenodd;clip-rule:evenodd;fill:url(#SVGID_16_);}
	.st18{fill-rule:evenodd;clip-rule:evenodd;fill:url(#SVGID_17_);}
	.st19{fill-rule:evenodd;clip-rule:evenodd;fill:url(#SVGID_18_);}
	.st20{fill-rule:evenodd;clip-rule:evenodd;fill:url(#SVGID_19_);}
	.st21{fill-rule:evenodd;clip-rule:evenodd;fill:url(#SVGID_20_);}
	.st22{fill-rule:evenodd;clip-rule:evenodd;fill:url(#SVGID_21_);}
	.st23{fill-rule:evenodd;clip-rule:evenodd;fill:url(#SVGID_22_);}
	.st24{fill-rule:evenodd;clip-rule:evenodd;fill:url(#SVGID_23_);}
	.st25{fill-rule:evenodd;clip-rule:evenodd;fill:url(#SVGID_24_);}
	.st26{fill-rule:evenodd;clip-rule:evenodd;fill:url(#SVGID_25_);}
	.st27{fill-rule:evenodd;clip-rule:evenodd;fill:url(#SVGID_26_);}
	.st28{fill-rule:evenodd;clip-rule:evenodd;fill:url(#SVGID_27_);}
	.st29{fill-rule:evenodd;clip-rule:evenodd;fill:url(#SVGID_28_);}
	.st30{fill-rule:evenodd;clip-rule:evenodd;fill:url(#SVGID_29_);}
	.st31{fill-rule:evenodd;clip-rule:evenodd;fill:url(#SVGID_30_);}
	.st32{fill-rule:evenodd;clip-rule:evenodd;fill:url(#SVGID_31_);}
	.st33{fill:#FFFFFF;}
</style>
<g>
	<path class="st0" d="M260,63.3c-8.8,0-14.2-7.1-14.2-15c0-7.8,5.2-14.5,14.1-14.5c6.7,0,11.5,4.4,11.5,4.4l3.7-5.7
		c0,0-5.3-5.7-15.6-5.7c-12.4,0-21.6,9.4-21.6,21.6c0,12.4,8.9,21.9,21.8,21.9c10.7,0,16.5-6.8,16.5-6.8l-4-5.5
		C272.2,58,267.3,63.3,260,63.3z"/>
	<path class="st0" d="M300.1,26.8c-12.5,0-21.8,9.4-21.8,21.5c0,12.4,9.4,22,21.8,22s21.7-9.6,21.7-22
		C321.8,36.2,312.4,26.8,300.1,26.8z M300.1,63.3c-7.7,0-13.9-6.5-13.9-15c0-8.3,6.1-14.5,13.9-14.5s13.9,6.1,13.9,14.5
		C313.9,57,307.7,63.3,300.1,63.3z"/>
	<path class="st0" d="M377.5,51.7h14.2v-6.6l0,0l0,0h-14.2v-11h17.6v-6.6h-25.2v17.6h-7.7V27.6h-7.6v24.3c0,2.5,0.4,6.6,0.4,6.6
		h-0.1c0,0-1.9-4.1-3.5-6.6l-16-24.3h-7.6v42.1h7.6V45.3c0-2.5-0.4-6.6-0.4-6.6h0.1c0,0,1.9,4.1,3.5,6.6l16,24.2h7.6V51.7h7.7v17.9
		H396V63h-18.5V51.7z"/>
	<path class="st0" d="M419.9,63.3c-8.8,0-14.2-7.1-14.2-15c0-7.8,5.2-14.5,14.1-14.5c6.7,0,11.5,4.4,11.5,4.4l3.7-5.7
		c0,0-5.3-5.7-15.6-5.7c-12.4,0-21.7,9.4-21.7,21.6c0,12.4,8.9,21.9,21.8,21.9c10.7,0,16.5-6.8,16.5-6.8l-4-5.5
		C432.1,58,427.2,63.3,419.9,63.3z"/>
	<polygon class="st0" points="473.7,27.6 438.5,27.6 438.5,34.1 452.3,34.1 452.3,69.7 459.9,69.7 459.9,34.1 473.7,34.1 	"/>
	<path class="st0" d="M484.2,27.6l-14.8,42.1h7.9l3.6-10.8h14.8l3.6,10.8h7.9l-14.8-42.1C492.4,27.6,484.2,27.6,484.2,27.6z
		 M482.6,52.6l3.7-11.2c0.8-2.3,1.8-6.6,1.8-6.6h0.1c0,0,0.8,4.1,1.7,6.6l3.7,11.2H482.6z"/>
	<path class="st0" d="M525.7,27.6h-14.4v42.1h14.4c13,0,21.5-7.8,21.5-21.2S538.8,27.6,525.7,27.6z M525.3,63h-6.2V34.1h6.2
		c8.5,0,14,5.1,14,14.4C539.4,58,533.9,63,525.3,63z"/>
	<path class="st0" d="M573.6,26.8c-12.4,0-21.8,9.4-21.8,21.5c0,12.4,9.4,22,21.8,22s21.8-9.6,21.8-22
		C595.3,36.2,585.9,26.8,573.6,26.8z M573.6,63.3c-7.7,0-13.9-6.5-13.9-15c0-8.3,6.1-14.5,13.9-14.5c7.7,0,13.9,6.1,13.9,14.5
		C587.4,57,581.3,63.3,573.6,63.3z"/>
	<path class="st0" d="M607.2,38.9c0-3,2.8-5.1,6.3-5.1c5.3,0,9.3,3.7,9.3,3.7l3.3-6.2c0,0-4.2-4.5-12.6-4.5c-8,0-14.1,5.2-14.1,12.2
		c0,12.9,19.9,11.6,19.9,19.2c0,3.5-2.9,5.1-6.1,5.1c-5.9,0-10.5-4.4-10.5-4.4l-4.1,5.7c0,0,5.2,5.7,14.5,5.7
		c8.8,0,13.9-5.6,13.9-12.4C627,44.6,607.2,46.4,607.2,38.9z"/>
</g>
<g>
	
		<linearGradient id="SVGID_1_" gradientUnits="userSpaceOnUse" x1="-1067.8352" y1="86.6835" x2="-1030.6106" y2="111.943" gradientTransform="matrix(-1 0 0 1 -882.348 0)">
		<stop  offset="0" style="stop-color:#00377D"/>
		<stop  offset="1" style="stop-color:#011D4A"/>
	</linearGradient>
	<polygon class="st1" points="92.8,102.4 112.4,82.7 130.7,72.9 147.2,69.9 168.3,69.9 178.1,72.9 191.6,76.8 203.9,88.4 
		213.7,94.1 219.2,102.2 221.5,115.8 89.7,115.8 	"/>
	<g>
		<g>
			<path class="st2" d="M90.7,103.2c0.6,0.5,1.3,0.8,2,0.8c0.7,0,1.3-0.2,1.9-0.6c2.8-2.2,5.7-4.9,7.7-7.1l0.7-0.8
				c0,0,0.1-0.1,0.1-0.1c13.2-14.9,32.1-23.5,51.8-23.5c19.5,0,37.6,8,50.9,22.6c0.1,0.1,0.3,0.3,0.4,0.4c2.3,2.7,4.3,3.3,5.6,3.3
				c0.2,0,0.4,0,0.5,0c2.7,3.5,5,8.5,6.1,11.2c0.5,1.2,1.6,1.9,2.8,1.9c0.2,0,0.3,0,0.5,0c1.4-0.2,2.4-1.5,2.5-2.9
				c0.1-2.9-2.2-9.3-4.5-12.7c0,0,0-0.1-0.1-0.1c-5.4-7.6-12.1-14.1-19.7-19.4l10.4,2.5c1.1,0.9,2.4,1.4,3.7,1.4
				c0.4,0,0.8,0,1.2-0.1c1.5,1.2,3.2,2,5.1,2c0.6,0,1.1-0.1,1.6-0.2c0,0.8,0,1.6,0,2.5c-0.1,5.4-0.1,7.1,1.2,8.4
				c0.6,0.6,1.4,1,2.3,1c0.2,0,0.5,0,0.7-0.1c13.9-3.2,27.6-7.2,43.9-12.3c1.3-0.4,2.2-1.7,2.1-3.1c-0.1-1.3-0.9-2.3-2.1-2.7
				c-0.2-0.5-0.5-1-1-1.3l-29.4-21.6c-0.1-0.1-0.2-0.2-0.4-0.2l-3.4-1.8c-0.5-0.2-0.9-0.4-1.4-0.4c-1,0-1.9,0.5-2.5,1.3
				c-0.4,0.6-0.6,1.4-0.5,2.1c-0.2,0.1-0.3,0.3-0.5,0.5c-1.7,2.3-3.5,4.8-5.4,7.3c-0.4,0-0.7,0-1.2,0c-1.2-0.7-2.6-1.1-4-1.1
				c-1.2,0-2.3,0.3-3.4,0.8c-0.8-0.4-1.6-0.6-2.4-0.6c-1,0-1.9,0.2-2.7,0.7c-6.2-0.1-13.2-0.2-19-0.3c0.1-0.9,0-1.8-0.4-2.6
				c-0.2-0.4-0.3-0.7-0.5-1.1c0.7-3.7,1.4-7.5,2.1-11.2c0.4-0.3,0.8-0.7,1.1-1.1c1.5-2.6,1.6-5,0.3-7.3c-0.2-0.4-0.5-0.8-0.8-1.1
				c0-3.4-1.4-6-4-7.1l-0.9-0.5c-3.8-1.9-7.3-3.7-11.1-4.2c0.9-0.3,1.7-1,2-1.9c0.3-1,0.5-1.6,0.6-2c0,0,0,0,0-0.1
				c0-0.2,0.2-1.3,0.3-1.8c1.3-4.3,2.6-7.8,4.2-10.7c0.7-1.3,0.4-2.9-0.8-3.8c-0.6-0.5-1.4-0.9-2.2-1.1c-0.3-0.2-0.6-0.3-0.8-0.3
				c-0.1-0.1-0.3-0.2-0.4-0.3c-2.3-1.2-4.8-1.6-7.1-1.9c-0.1,0-0.2,0-0.3,0c-0.2,0-0.3,0-0.5,0c-1.1-0.2-2-0.3-2.9-0.3
				c-0.4,0-0.8,0-1.2,0.1c-0.1,0-0.3,0-0.4,0.1c-6,1.4-10.9,4-14.8,7.9c-0.3,0.3-0.6,0.7-0.7,1.2c-1.9,2.7-4,6-4.9,9.3
				c0,0.1,0,0.2-0.1,0.3c0,0,0,0,0,0.1c0,0.1-0.1,0.4-0.2,0.6c-0.1,0.2-0.2,0.4-0.2,0.6c0,0,0,0,0,0.1c-0.1,0.1-0.2,0.3-0.2,0.5
				c-0.6,1.5-1.1,3.2-1.3,4.8c-0.1,0.2-0.2,0.4-0.4,0.6c-1,1.8-1.6,2.8-2.9,3.3c-0.8,0.3-1.7,0.4-2.3,0.4c-0.3,0-0.5,0-0.5-0.1
				c-0.3-0.1-0.7-0.2-1-0.2c-0.7,0-1.3,0.2-1.8,0.6c-0.4,0-0.8,0-1.3,0c-1.2,0-3.1,0.1-4.6,1.4c-1.8,1.4-2.3,3.3-2.1,4.9
				c0,0-0.1,0-0.1,0c-0.4,0-0.7-0.1-1.1-0.1c-0.9,0-1.8,0.2-2.7,0.5c-1.3,0.5-2.1,1.8-1.9,3.2c0.2,1.4,1.3,2.4,2.7,2.6
				c0.8,0.1,1.3,0.3,2.1,0.7c0.6,0.3,1.4,0.7,2.3,0.9c-1.7,0.6-3.2,1.4-3.9,1.8c-0.9,0.6-1.8,1.6-2,2.8c-1.4,0.7-2.8,1.7-4.1,3.3
				c-0.4,0.5-0.6,1.1-0.7,1.7c-2.2,1.2-4,3-5,5.1c-0.1,0.2-0.2,0.3-0.2,0.5c-0.3,0.2-0.5,0.4-0.8,0.6c-1.4,1.1-2.1,2.8-2.7,4.5
				c-0.3,0.8-0.8,2.1-1.1,2.4c-0.7,0.5-1,1.2-1.2,2c-1.8,1.2-3.5,2.7-4.9,4.7c-3.3,4.8-3.7,8.9-3.5,12.2c-4,4-7.5,8.6-10.6,13.5
				C89.4,100.6,89.6,102.2,90.7,103.2z M247.2,67.9l-16.6-1.1c1.7-3.2,3.3-6.2,4.9-9L247.2,67.9z"/>
			<path class="st2" d="M116.7,84.7c11.5-7.2,24.6-11.1,38-11.1c10.5,0,21.1,2.4,30.5,6.9c9.7,4.6,18.2,11.6,24.7,20.1
				c0.8,1,0.8,2.5,0.1,3.6c-0.6,0.8-1.5,1.3-2.4,1.3c-0.3,0-0.6,0-0.9-0.1c-3.1-1-5.1-2.2-7.9-4.5c-0.1-0.1-0.2-0.2-0.3-0.3
				c-11.4-12.2-27.7-19.3-44.7-19.3c-11.8,0-23.4,3.4-33.5,9.7c-1.8,1.2-3.5,2.4-5.1,3.6c-1.6,1.3-3.7,2.5-6.2,3.7
				c-0.4,0.2-0.9,0.3-1.3,0.3c-1,0-1.9-0.5-2.5-1.3c-0.8-1.2-0.7-2.9,0.4-3.9C109,90.2,112.7,87.2,116.7,84.7z"/>
		</g>
		<g>
			
				<linearGradient id="SVGID_2_" gradientUnits="userSpaceOnUse" x1="-1113.9619" y1="86.337" x2="-1027.0824" y2="87.061" gradientTransform="matrix(-1 0 0 1 -882.348 0)">
				<stop  offset="0" style="stop-color:#00377D"/>
				<stop  offset="1" style="stop-color:#011D4A"/>
			</linearGradient>
			<path class="st3" d="M156.3,65.4c-26.7,0-50.2,14.2-63.6,35.6c2.9-2.3,5.6-4.8,7.3-6.8c0.2-0.3,0.5-0.6,0.7-0.8
				c0,0,0.1-0.1,0.1-0.1l0,0c13.3-15.1,32.6-24.5,54-24.5c21,0,39.8,9.1,53.1,23.5c0.1,0,0.1,0.1,0.2,0.1c2.5,3.3,4.6,3.1,4.7,1.7
				c3.7,3.7,6.9,10.4,8.3,14c0.1-2-1.9-7.9-4-11C203.6,77.8,181.4,65.4,156.3,65.4z"/>
			
				<linearGradient id="SVGID_3_" gradientUnits="userSpaceOnUse" x1="-1113.6603" y1="50.1356" x2="-1026.7808" y2="50.8595" gradientTransform="matrix(-1 0 0 1 -882.348 0)">
				<stop  offset="0" style="stop-color:#00377D"/>
				<stop  offset="1" style="stop-color:#011D4A"/>
			</linearGradient>
			<path class="st4" d="M174,66c-2-0.8-2.4-2.4-3.9-3.5c0.8-3.4,1.4-6.7,1.4-9.6c-2.3-1.2-4.1-3.5-9.1-4.7c-1.7-0.4-4.9,0.6-5.4,1.7
				c0.8,1.5,2.3,3.2,3.1,4.7c2.2,1.4,4.1,1.9,6.6,2.4c-0.9,2.5-2.3,5.2-2.9,7.8c-5.7-0.6-10.4-0.2-15.2,0.6
				c-0.5-1.3-0.9-2.6-1.2-3.9c1.8-3.4,2-7,0.5-9.1c1.5-3.8,4.2-6.3,7.9-8.2c6.2-3.2,14.7-7.5,22-9c-0.7,7.3-3.4,14.5-3.3,17.2
				C174.6,57,174.5,61,174,66z"/>
			
				<linearGradient id="SVGID_4_" gradientUnits="userSpaceOnUse" x1="-1113.5885" y1="41.5157" x2="-1026.7089" y2="42.2397" gradientTransform="matrix(-1 0 0 1 -882.348 0)">
				<stop  offset="0" style="stop-color:#00377D"/>
				<stop  offset="1" style="stop-color:#011D4A"/>
			</linearGradient>
			<path class="st5" d="M178.2,34.2c-5.6,1-13,4.5-15.9,6.5c-0.4,0.3-0.6,0.8-0.8,1.3c-2.5,1.2-4.9,2.4-7.4,3.6
				c-0.8,0.2-1.4,0.5-2.2,0.7c-2.2,1.5-4.2,4.1-4.7,6.3c-1,0.5-2,1-3.1,1.6c1.4-3,2.4-6.1,4.8-8.9c1.6-1.9,3.9-3.5,6.9-5.3
				c0.2,0.4,0.4,0.8,0.6,1.3c0.1,0.4,0.3,0.8,0.4,1.2c0.1-1.1,0.2-2.2,0.5-3.3c7.2-3.8,14.9-7.5,22.4-9.2
				C179.1,31,178.5,33,178.2,34.2z"/>
			
				<linearGradient id="SVGID_5_" gradientUnits="userSpaceOnUse" x1="-1113.6459" y1="48.4124" x2="-1026.7664" y2="49.1364" gradientTransform="matrix(-1 0 0 1 -882.348 0)">
				<stop  offset="0" style="stop-color:#00377D"/>
				<stop  offset="1" style="stop-color:#011D4A"/>
			</linearGradient>
			<path class="st6" d="M179.7,30.2c1.8,3,2.9,6,4.1,9.6c0.9,2.8,1.3,5.2,1,7.4c-0.5,0.5-1,1-1.4,1.6c-0.4,1.6-0.6,3.1-0.4,4.4
				c0.3,2,0,3.7-0.6,4.9c-1.4,3.1-2.7,6.2-3.9,9.4c-0.5-0.2-1.1-0.4-1.8-0.6c0.7-3.1,0.9-6.3,0.9-9.2c1.3-0.5,2.6-0.6,3.5-1.6
				c0.8-0.9,1.2-2.4,1.2-3.4c-0.9-0.8-1.8-1.3-2.8-1.2c-1.3,0.1-2.7,1-3.6,1.6c-0.3,0.8,0.2,7.1,0.2,10.9c-0.5,0.8-1,1.4-1.6,1.8
				c0.1-2.8,0.3-5.4,0.2-8.2c0-1.9-0.2-4-0.4-5.9c1.9-4.4,3-10.3,4-16.2c1.6,2.5,3,4.4,3.9,7.2c-0.6-3.3-1.9-5.3-3.7-8.2
				C178.8,33.2,179.3,31.1,179.7,30.2z"/>
			
				<linearGradient id="SVGID_6_" gradientUnits="userSpaceOnUse" x1="-1113.5581" y1="37.8695" x2="-1026.6786" y2="38.5935" gradientTransform="matrix(-1 0 0 1 -882.348 0)">
				<stop  offset="0" style="stop-color:#00377D"/>
				<stop  offset="1" style="stop-color:#011D4A"/>
			</linearGradient>
			<path class="st7" d="M176.4,30.2c-0.3-0.4-1-0.9-1.6-1.1c-1.8,0-3.5,0-5.5,0.1c-0.5-0.2-1-0.3-1.6-0.4c-0.3,0,0.1-1.3-0.2-1.3
				c-1-0.2-2.1-0.2-3.1-0.2l-0.6,1.2l-0.2,0l-0.2-1.2c-2,0.1-3.9,0.5-5.7,1.2l-0.3,1.3l-0.2,0.1l-0.3-1.1c-0.8,0.4-1.6,0.8-2.3,1.3
				c-0.5,0.3-0.7,1.6-1.2,1.9c-0.1-0.2-0.2-0.6-0.3-0.7c-2,1.8-3.7,4.1-5.3,7.3c-1.5,3-2.2,7.9-1.7,10.9c0.5-0.7,1-1.7,1.6-2.7
				c0.7-1.5,2.1-3.5,3.3-4.6c2.2-1.9,4.2-3.4,6.7-4.8C163.8,34.2,170.3,32.1,176.4,30.2z"/>
			
				<linearGradient id="SVGID_7_" gradientUnits="userSpaceOnUse" x1="-1113.4431" y1="24.0735" x2="-1026.5636" y2="24.7975" gradientTransform="matrix(-1 0 0 1 -882.348 0)">
				<stop  offset="0" style="stop-color:#00377D"/>
				<stop  offset="1" style="stop-color:#011D4A"/>
			</linearGradient>
			<path class="st8" d="M175,28.8c-0.2-2.2,0.2-4.5,1-6.8c0.2-0.4,0.7-0.6,1.1-0.9c-2.2-0.6-4.2-0.9-6.4-0.9
				c-0.5,0.4-0.5,0.8-0.4,1.1c0.4,2.5-0.2,5.2-0.7,7.5C171.4,28.9,173.2,28.8,175,28.8z"/>
			
				<linearGradient id="SVGID_8_" gradientUnits="userSpaceOnUse" x1="-1113.4553" y1="25.536" x2="-1026.5758" y2="26.26" gradientTransform="matrix(-1 0 0 1 -882.348 0)">
				<stop  offset="0" style="stop-color:#00377D"/>
				<stop  offset="1" style="stop-color:#011D4A"/>
			</linearGradient>
			<path class="st9" d="M169.2,20.2c0.3,0.2,0.7,0.5,0.8,1.1c0.3,2,0,3.6-0.4,5.3c-0.2,0.8-0.5,1.8-0.8,2.6
				c-1.9-0.3-3.5-0.6-4.9-0.6c0.3-1.1,0.6-3.2,0.7-5.4c0.1-1-0.5-1-1-0.9c-0.6,0.1-1,0.3-1,1.3c-0.1,2.1-0.3,3.9-0.5,5.1
				c-1.5,0.2-3,0.6-4.5,1.3c0-1-0.1-2.5-0.2-4.1c-0.1-0.8-0.5-0.8-0.9-0.5c-0.4,0.3-0.7,0.6-0.6,1.4c0.3,1.5,0.4,2.8,0.4,3.8
				c-0.8,0.4-1.6,0.9-2.5,1.5c-0.1-1.2-0.6-2.5-0.8-3.1c-0.1-0.3-0.4-0.4-0.6-0.6C155.4,24.1,161.2,19.9,169.2,20.2z"/>
			
				<linearGradient id="SVGID_9_" gradientUnits="userSpaceOnUse" x1="-1113.4253" y1="21.9407" x2="-1026.5458" y2="22.6647" gradientTransform="matrix(-1 0 0 1 -882.348 0)">
				<stop  offset="0" style="stop-color:#00377D"/>
				<stop  offset="1" style="stop-color:#011D4A"/>
			</linearGradient>
			<path class="st10" d="M170.5,18c-0.1,0.6-0.1,1.2-0.2,1.8c-4.3-0.1-8.6,0.5-12.5,3.2c-1.8,1.3-3.3,2.6-4.8,4.1
				c-0.1-0.2-0.1-0.6,0.1-0.8c0.9-1.5,0.4-1.2,1.1-2c1-1.2,1.7-1.8,3.2-2.9C161.4,18.5,166,17.9,170.5,18z"/>
			
				<linearGradient id="SVGID_10_" gradientUnits="userSpaceOnUse" x1="-1113.3955" y1="18.3637" x2="-1026.516" y2="19.0877" gradientTransform="matrix(-1 0 0 1 -882.348 0)">
				<stop  offset="0" style="stop-color:#00377D"/>
				<stop  offset="1" style="stop-color:#011D4A"/>
			</linearGradient>
			<path class="st11" d="M178.2,19.7c-0.1,0.4-0.3,1.1-0.5,1.6c-0.2,0-0.5-0.1-0.7-0.2c0.3-0.7,0.5-1.8,0.2-1.9
				c-1.8-0.7-3.9-0.8-6.2-1.1c0.5-5.1,0.5-8.3-0.8-13.8c1,4.7,1,8.3,0.2,13c-5.5,0.2-12.4,1.6-15.5,6.4c-1.3,1.3-2.8,2.8-3.8,4.1
				c0.2,0.4,0.3,0.7,0.5,1.1l0.8,0c-0.5,1.9-3,5.5-5.2,6c1-1.6,2-5.1,2-6.5c0-2.4,0.5-4.7,1.4-6.7c0.5,0.4,0.6,0.8,1.1,1.3
				c-0.2-0.7-0.4-1.4-0.8-2c0.1-0.4,0.4-0.9,0.5-1.3c0.3,0.2,0.4,0.5,0.5,0.8c0-0.6-0.1-1-0.4-1.3c0.8-2.8,2.7-5.8,4.6-8.5
				c0.7,1.1,0.7,2.4,1.1,3.5c-0.1-1.5-0.2-2.9-0.7-4.2c3.9-3.9,8.6-6,13.4-7.1c1.1-0.1,2.1,0,3.4,0.2c0.3,1.3,0.4,2.6,0.5,3.9
				c0.3-1.3,0.5-2.6,0.4-3.9c2.2,0.3,4.3,0.6,6,1.6c-0.2,1-0.5,2.1-0.6,3.3c0.3-1,0.6-2,1-3c0.2,0.2,0.6,0.2,0.8,0.3
				c-0.2,0.7-0.5,1.6-0.6,2.3c0.4-0.7,0.7-1.4,1.1-2.1c0.5,0.1,0.9,0.3,1.3,0.6c-1.8,3.3-3.3,7.3-4.5,11.5
				C178.5,17.7,178.2,19.5,178.2,19.7z"/>
			
				<linearGradient id="SVGID_11_" gradientUnits="userSpaceOnUse" x1="-1113.5166" y1="32.8939" x2="-1026.6371" y2="33.6179" gradientTransform="matrix(-1 0 0 1 -882.348 0)">
				<stop  offset="0" style="stop-color:#00377D"/>
				<stop  offset="1" style="stop-color:#011D4A"/>
			</linearGradient>
			<path class="st12" d="M149.2,29.2c-0.5,2-1.5,4.4-3,6.1c-3.1,2.1-6.5,1.2-10.5,0.7c-0.9-0.1-1.4,0.4-1.4,0.8
				c0.5-0.3,0.9-0.6,2-0.2c0.6,0.8,0.8,1.5,0.4,2.5c-0.7,1.8-2.6,2.2-4.4,2.1c-2-0.2-3-1.5-5.5-1.7c1.9-0.7,3.2,0.1,4.9,0.2
				c-0.3-0.1-0.8-0.4-1-0.7c1.2,0.1,2.6-0.1,3.3-1.3c0.7-0.1,1.2,0.3,1.6,0.5c-0.1-0.8-2.1-0.9-2.6-1.5c-0.6-0.8-0.8-2.1,0.6-3.2
				c1.3-1,3.4-0.8,6.1-0.5c1,0.5,2.3,0.8,3,0.5c-1.2-0.2-2.4-0.6-3.2-1.4c1.3,0.5,3.2,0.1,4.7-0.3c3.1-1,4-3.8,5.4-6
				C149.4,27.1,149.3,28.1,149.2,29.2z"/>
			
				<linearGradient id="SVGID_12_" gradientUnits="userSpaceOnUse" x1="-1113.7523" y1="61.1827" x2="-1026.8728" y2="61.9067" gradientTransform="matrix(-1 0 0 1 -882.348 0)">
				<stop  offset="0" style="stop-color:#00377D"/>
				<stop  offset="1" style="stop-color:#011D4A"/>
			</linearGradient>
			<path class="st13" d="M136.4,67L136.4,67c-1.8-1.6-3.2-3.9-5.2-4.9c-6.3-3.1-12.4,0.7-15.8,6c-0.6,1-2,1-3.1,1.2
				c1.9-1.4,2.3-5.8,3.8-7c3.4-2.7,6.7-3.7,11-3.3c3.9,0.4,6.4,2.6,7.8,4.3c-1.9-2.3-3.1-5.4-5.8-6.7c-5.1-2.4-9.3,1.3-11.1,3.5
				c1.6-3.1,5.8-5.7,9.9-5.3c2.4,0.3,4.8,1.6,6.5,4.2c0,0,3.4,6,4.9,7.2C138.2,66.6,137.3,66.8,136.4,67z"/>
			
				<linearGradient id="SVGID_13_" gradientUnits="userSpaceOnUse" x1="-1113.7026" y1="55.2189" x2="-1026.8231" y2="55.9429" gradientTransform="matrix(-1 0 0 1 -882.348 0)">
				<stop  offset="0" style="stop-color:#00377D"/>
				<stop  offset="1" style="stop-color:#011D4A"/>
			</linearGradient>
			<path class="st14" d="M127.4,50.9c-1.8,0.7-3.1,1.5-4.2,3c-0.2,0.2-0.1,0.7,0.1,1c1.7-0.3,3.3-0.6,5-0.4c3,0.5,4.8,1.7,6.4,3.5
				c1.4,1.6,1.5,3.3,3,4.9c1,1,2.4,1.1,2.5,0.5c0.4,0.7,1.1,2,1.8,2.4h0c1.4-0.3,2.8-0.5,4.3-0.7c-0.5-2.3-1.8-6.6-2.9-8.3
				c-0.3,1.1-1.9,0.9-2.1-0.5c-0.4-4.1-1.2-8.5-5.8-9.9c-2.1-0.4-5.9,1.4-7,2.1c-0.4,0.2-0.9,0.8-0.7,1.4c1.4,0,3.1,0,4.5,0.5
				c4.2,1.6,4.7,4.7,6.3,8C135.9,53.1,132.4,50.4,127.4,50.9z"/>
			
				<linearGradient id="SVGID_14_" gradientUnits="userSpaceOnUse" x1="-1113.6388" y1="47.5555" x2="-1026.7593" y2="48.2795" gradientTransform="matrix(-1 0 0 1 -882.348 0)">
				<stop  offset="0" style="stop-color:#00377D"/>
				<stop  offset="1" style="stop-color:#011D4A"/>
			</linearGradient>
			<path class="st15" d="M145,41.6c-0.3,2.7-0.3,5.3-0.1,7.9c-1.1,1.4-1.5,3-1.6,4.6c-0.2,1.4-0.7,1.9-1.5,1.4
				c-0.3-1.7-0.3-3.5-0.8-5.2c-0.6-1.8-1.5-3.6-4.6-4.6c-0.2-0.2,0.4-1.1,1.4-1.3c1.3-0.3,2.9-0.1,4.1,0.4c-0.5-0.5-1.2-1-2.5-1
				c0.9-0.5,1.7-1.1,2.1-2.1C142.2,40.8,143.4,40.7,145,41.6z"/>
			
				<linearGradient id="SVGID_15_" gradientUnits="userSpaceOnUse" x1="-1113.8588" y1="73.9532" x2="-1026.9792" y2="74.6772" gradientTransform="matrix(-1 0 0 1 -882.348 0)">
				<stop  offset="0" style="stop-color:#00377D"/>
				<stop  offset="1" style="stop-color:#011D4A"/>
			</linearGradient>
			<path class="st16" d="M127.4,62.1c-2.2-0.6-4.7-0.7-7.8,0.2c-1.9,1.9-3.3,3.9-3.7,6c-3.2,2-6.8,3.6-9.1,7
				c-3.5,5.1-3.2,9.1-2.7,12.9c0.9-0.7,1.8-1.3,2.7-2c-0.6-2.7-0.1-5.9,1.3-8.8c0.2-0.4,0.5-0.3,0.4,0.5c-0.3,1.5-0.5,4.1,0,5.8
				c0.6-0.4,2.3-1.9,2.9-2.3c-0.4-1.5-0.7-5,1.7-8.2c1.9-2.6,5-4.5,11.3-5.5c1.3-0.2,2.5-0.1,3.8-0.1c-1.5-0.7-3.8-1.1-4-2.6
				C123.8,63.5,125.5,62.6,127.4,62.1z"/>
			
				<linearGradient id="SVGID_16_" gradientUnits="userSpaceOnUse" x1="-1113.5028" y1="31.2421" x2="-1026.6233" y2="31.9661" gradientTransform="matrix(-1 0 0 1 -882.348 0)">
				<stop  offset="0" style="stop-color:#00377D"/>
				<stop  offset="1" style="stop-color:#011D4A"/>
			</linearGradient>
			<path class="st17" d="M175.6,27.1c-0.1,0.8-0.1,1.2-0.1,1.6c0.6,0.3,0.9,0.5,1.7,0.4c2.5-0.2,5.3,0.4,8.5,2
				c-0.3,0.3-1.3,0.6-1.6,0.8c1.6-0.2,7.5,0.2,5.4,3.1c1,0.2,1.7,0.6,2.1,1.3c0.1-2.2-0.6-4-2.2-4.6C184.3,29,180.1,26.7,175.6,27.1
				z"/>
			
				<linearGradient id="SVGID_17_" gradientUnits="userSpaceOnUse" x1="-1113.5626" y1="38.4108" x2="-1026.683" y2="39.1348" gradientTransform="matrix(-1 0 0 1 -882.348 0)">
				<stop  offset="0" style="stop-color:#00377D"/>
				<stop  offset="1" style="stop-color:#011D4A"/>
			</linearGradient>
			<path class="st18" d="M184.2,34.5c1.1-0.1,2.1-0.5,4.1,0.3c1.6,0.7,3.7,2.3,4.6,3.8c0.8,1.4,0.7,2.6-0.3,4.2
				c-0.2,0.3-0.6,0.4-0.8,0.3c-0.1-0.9-0.3-1.8-1-2.8c0.8-0.2,1.5-0.6,0.7-1.7c-0.8-1.1-2-2.5-3.6-3.3
				C186.7,34.7,185.4,34.6,184.2,34.5z"/>
			
				<linearGradient id="SVGID_18_" gradientUnits="userSpaceOnUse" x1="-1113.5774" y1="40.1899" x2="-1026.6979" y2="40.9139" gradientTransform="matrix(-1 0 0 1 -882.348 0)">
				<stop  offset="0" style="stop-color:#00377D"/>
				<stop  offset="1" style="stop-color:#011D4A"/>
			</linearGradient>
			<path class="st19" d="M190.6,39.8c-0.4-0.7-1.7-1.9-2.9-2.5c-0.3-0.2-1.4-0.4-1.9-0.5c-0.6-0.1,0.3,0.3,0.3,0.7
				c-0.1,2.2,0.3,4.6,0,6.7c0.5-1.6,0.8-1.8,0.9-3.8c0-0.6,1.9,1.1,2.1,0.6C189.1,40.2,189.8,39.3,190.6,39.8z"/>
			
				<linearGradient id="SVGID_19_" gradientUnits="userSpaceOnUse" x1="-1113.678" y1="52.2541" x2="-1026.7983" y2="52.9781" gradientTransform="matrix(-1 0 0 1 -882.348 0)">
				<stop  offset="0" style="stop-color:#00377D"/>
				<stop  offset="1" style="stop-color:#011D4A"/>
			</linearGradient>
			<path class="st20" d="M191.3,44.1c-0.8,4.4-1.6,8.8-2.5,13.1c0.3,0.6,0.7,1.2,0.9,1.8c0.5,1-0.1,2.1-0.9,2
				c-0.2-0.9-1.1-2.1-2.4-3.2c-1-0.8-1.8-1-2.5-1c0.8-1.7,2.7-0.6,3.6,0.3c-0.2-0.9-0.7-1.8-0.7-2.8c0-0.8,0.5-1.6,0.7-2.4
				c-0.1,0.7-0.3,1.5-0.2,2.2c0.2,0.8,0.7,1.6,1,2.4c0.7-3.3,1.4-6.7,2-10C190.7,45.1,191,44.5,191.3,44.1z"/>
			
				<linearGradient id="SVGID_20_" gradientUnits="userSpaceOnUse" x1="-1113.6237" y1="45.7333" x2="-1026.744" y2="46.4573" gradientTransform="matrix(-1 0 0 1 -882.348 0)">
				<stop  offset="0" style="stop-color:#00377D"/>
				<stop  offset="1" style="stop-color:#011D4A"/>
			</linearGradient>
			<path class="st21" d="M186.6,37c-0.8-0.2-2.2-0.4-2.9-0.2c1.5,3.7,2.3,7.2,2.3,10.9c-0.4,0.5-1,0.8-1.3,1.4
				c-1.1,2.3-0.6,4.1-0.5,5.9c0.3-0.1,1.1,0.1,2.2,0.4c-0.1-0.9-0.1-1.9,0.2-2.9c1.1-4.4,2.1-8.7,2.7-13.4
				C188.6,38.6,187.4,37.6,186.6,37z"/>
			
				<linearGradient id="SVGID_21_" gradientUnits="userSpaceOnUse" x1="-1113.8319" y1="70.7339" x2="-1026.9524" y2="71.4579" gradientTransform="matrix(-1 0 0 1 -882.348 0)">
				<stop  offset="0" style="stop-color:#00377D"/>
				<stop  offset="1" style="stop-color:#011D4A"/>
			</linearGradient>
			<path class="st22" d="M179.8,65.8c-0.1,0.9,0.3,1.7,1,2.2l42.7,8.1l-1.6-6.2L179.8,65.8z"/>
			
				<linearGradient id="SVGID_22_" gradientUnits="userSpaceOnUse" x1="-1113.8612" y1="74.2406" x2="-1026.9816" y2="74.9646" gradientTransform="matrix(-1 0 0 1 -882.348 0)">
				<stop  offset="0" style="stop-color:#00377D"/>
				<stop  offset="1" style="stop-color:#011D4A"/>
			</linearGradient>
			<polygon class="st23" points="223.5,77.4 192.5,70.2 189.3,70.2 224,78.7 			"/>
			
				<linearGradient id="SVGID_23_" gradientUnits="userSpaceOnUse" x1="-1113.7756" y1="63.9815" x2="-1026.8961" y2="64.7055" gradientTransform="matrix(-1 0 0 1 -882.348 0)">
				<stop  offset="0" style="stop-color:#00377D"/>
				<stop  offset="1" style="stop-color:#011D4A"/>
			</linearGradient>
			<path class="st24" d="M180.8,63.7l45.4,1.5l1.4-1.2l-46.3-0.7C181,63.2,180.8,63.5,180.8,63.7z"/>
			
				<linearGradient id="SVGID_24_" gradientUnits="userSpaceOnUse" x1="-1113.8496" y1="72.8611" x2="-1026.9701" y2="73.5851" gradientTransform="matrix(-1 0 0 1 -882.348 0)">
				<stop  offset="0" style="stop-color:#00377D"/>
				<stop  offset="1" style="stop-color:#011D4A"/>
			</linearGradient>
			<path class="st25" d="M223,69.6c3.5-4.7,6.9-9.4,10.4-14.1c-2.8,5.1-5.6,10.3-8.3,15.4c14.7,2.4,29.4,4.8,44.1,7.1
				c-14.6,4.5-29.1,8.9-43.7,12.3c-0.9,0.2-0.3-7.1-0.5-10.6C224.4,76.3,223.7,72.9,223,69.6L223,69.6z M226.5,88.4l23.8-5.7
				l-23.8,3.2V88.4z"/>
			
				<linearGradient id="SVGID_25_" gradientUnits="userSpaceOnUse" x1="-1113.7815" y1="64.6872" x2="-1026.902" y2="65.4112" gradientTransform="matrix(-1 0 0 1 -882.348 0)">
				<stop  offset="0" style="stop-color:#00377D"/>
				<stop  offset="1" style="stop-color:#011D4A"/>
			</linearGradient>
			<polygon class="st26" points="267.3,76.2 237.9,54.7 234.4,52.8 256,71.5 229.2,69.7 			"/>
			
				<linearGradient id="SVGID_26_" gradientUnits="userSpaceOnUse" x1="-1113.8312" y1="70.6371" x2="-1026.9515" y2="71.3611" gradientTransform="matrix(-1 0 0 1 -882.348 0)">
				<stop  offset="0" style="stop-color:#00377D"/>
				<stop  offset="1" style="stop-color:#011D4A"/>
			</linearGradient>
			<path class="st27" d="M220.4,62.8c-3.3,0-6,3.5-6,7.9c0,4.4,2.7,7.9,6,7.9c1,0,1.9-0.3,2.7-0.8l-2.7-1c-2.4-0.3-4.4-3.1-4.4-6.4
				c0-3.6,2.1-6.4,4.8-6.4c0.6,0,1.1,0.1,1.6,0.4h1.5C223,63.4,221.8,62.8,220.4,62.8z"/>
			
				<linearGradient id="SVGID_27_" gradientUnits="userSpaceOnUse" x1="-1113.8242" y1="69.8006" x2="-1026.9446" y2="70.5246" gradientTransform="matrix(-1 0 0 1 -882.348 0)">
				<stop  offset="0" style="stop-color:#00377D"/>
				<stop  offset="1" style="stop-color:#011D4A"/>
			</linearGradient>
			<path class="st28" d="M214.6,63.1c-2.3,0-4.4,3.1-4.5,6.9c-0.1,3.8,1.7,6.9,4,6.9c0.7,0,1.3-0.3,1.9-0.7l-1.9-0.9
				c-1.7-0.3-3-2.7-2.9-5.6c0.1-3.1,1.7-5.6,3.6-5.6c0.4,0,0.8,0.1,1.1,0.3h1.1C216.4,63.5,215.5,63.1,214.6,63.1z"/>
			
				<linearGradient id="SVGID_28_" gradientUnits="userSpaceOnUse" x1="-1113.7935" y1="66.1109" x2="-1026.9138" y2="66.8349" gradientTransform="matrix(-1 0 0 1 -882.348 0)">
				<stop  offset="0" style="stop-color:#00377D"/>
				<stop  offset="1" style="stop-color:#011D4A"/>
			</linearGradient>
			<path class="st29" d="M188.6,62.8c-1.4,0-2.7,1.3-2.7,3.3c-0.1,2,0.5,3.8,2.5,4c0.4,0,0.8-0.2,1.2-0.5l-1.2-0.4
				c-1-0.1-1.5-1.4-1.5-2.9c0-1.6,1.1-2.9,1.7-2.9c0.7,0,0.6-0.1,0.8,0.1h0.6C189.6,63.1,189.1,62.8,188.6,62.8z"/>
			
				<linearGradient id="SVGID_29_" gradientUnits="userSpaceOnUse" x1="-1113.7471" y1="60.5545" x2="-1026.8676" y2="61.2785" gradientTransform="matrix(-1 0 0 1 -882.348 0)">
				<stop  offset="0" style="stop-color:#00377D"/>
				<stop  offset="1" style="stop-color:#011D4A"/>
			</linearGradient>
			<path class="st30" d="M183.8,58.5c-0.5-0.2-0.7,0.2-0.5,0.7c0.2,0.8,0.7,1.4,1.2,2c-0.4-0.2-0.8-0.2-1.3-0.2
				c-0.4,0-0.7,0.1-1.1,0.4c0.4-0.1,1-0.1,1.5,0c0.5,0.2,0.9,0.4,0.8,0.7c-0.2,0.5-0.8,0.6-1.4,0.6c-0.8-0.1-1.3-0.2-1.7-0.8
				c-0.1,0.5-0.4,1,0.1,1.4c0.9,0.1,1.7,0.1,2.6,0.2c0.5-0.1,1-0.4,1.3-0.8c0.4-0.5,0.2-1.1-0.1-1.3C184.4,60.8,184,59.6,183.8,58.5
				z"/>
			
				<linearGradient id="SVGID_30_" gradientUnits="userSpaceOnUse" x1="-1113.7491" y1="60.7949" x2="-1026.8696" y2="61.5189" gradientTransform="matrix(-1 0 0 1 -882.348 0)">
				<stop  offset="0" style="stop-color:#00377D"/>
				<stop  offset="1" style="stop-color:#011D4A"/>
			</linearGradient>
			<path class="st31" d="M187.9,60.7c0.1,0.6,0.4,0.9,0.7,1.4c0.2,0.1,0.7,0.6,0.7,0.9c0,0.2,0.1,0.3,0.1,0.5c0.6,0,1.3,0.1,1.9,0.1
				c-0.5-0.5-0.8-1-1.7-1.6c0.1-0.9-0.2-1.3-0.5-1.8c-0.5-0.5-1.1-1-1.6-1.5C187.9,59.4,187.8,60.1,187.9,60.7z"/>
			
				<linearGradient id="SVGID_31_" gradientUnits="userSpaceOnUse" x1="-1113.9851" y1="89.1167" x2="-1027.1056" y2="89.8407" gradientTransform="matrix(-1 0 0 1 -882.348 0)">
				<stop  offset="0" style="stop-color:#00377D"/>
				<stop  offset="1" style="stop-color:#011D4A"/>
			</linearGradient>
			<path class="st32" d="M207.5,102.4c-20.6-27-59.3-34-89.2-15.2c-3.9,2.5-7.5,5.3-10.7,8.3c2-1,4-2.1,5.6-3.4l0,0
				c1.7-1.3,3.5-2.6,5.3-3.8c26.9-17,61.4-12.1,82,10C203,100.5,204.7,101.5,207.5,102.4z"/>
		</g>
	</g>
</g>
<g>
	<g>
		<path class="st33" d="M3.1,26.7l0.5-3.3c0.4-0.2,1.3-0.5,1.8-0.6c0.3,0,0.3,0.1,0.3,0.4l-0.4,3.1l2.3-0.3L8,22.9
			c0.3-0.1,1-0.5,1.8-0.6c0.3,0,0.3,0.2,0.3,0.5l-0.4,3.1l1.3-0.2c0.3,0,0.6,0.1,0.5,0.6c-0.1,0.6-0.2,1.5-0.4,1.9l-1.8,0.2
			l-0.4,3.2l1.6-0.2c0.3,0,0.5,0.1,0.5,0.5c0,0.6-0.2,1.6-0.4,2l-2.2,0.3l-0.5,4c-0.2,0.2-1.1,0.5-1.7,0.6C6,39,6,38.7,6,38.5
			l0.5-3.9l-2.3,0.3l-0.6,4c0,0.4-0.2,0.5-0.4,0.5c-0.3,0-1.1-0.1-1.7-0.3l0.6-3.9l-1.6,0.2c-0.5,0.1-0.6,0-0.5-0.6
			c0-0.6,0.2-1.5,0.4-2l2-0.3l0.5-3.2l-1.7,0.2c-0.5,0.1-0.6,0-0.6-0.6c0.1-0.8,0.3-1.5,0.4-2L3.1,26.7z M5,29.1l-0.4,3.2l2.2-0.3
			l0.5-3.2L5,29.1z"/>
		<path class="st33" d="M28.4,19.6c0.4-0.3,2.6-0.8,3.3-0.9c0.3,0,0.4,0.1,0.5,0.9c0.7,5.3,1.3,11.5,2.2,16.8
			c-0.4,0.2-2.5,0.6-3.1,0.7c-0.4,0-0.7,0-0.7-0.6c-0.4-4.3-0.7-8.5-1.1-13c-0.7,2.8-2.5,7.7-4.3,13.8c-0.7,0.3-1.6,0.6-2.4,0.7
			c-0.6-2-2.9-9.3-3.9-13.2c-0.3,3.8-1,10.2-1.4,13.6c-0.1,0.4-0.2,0.5-0.7,0.6c-0.9,0.1-2.3,0.3-2.7,0.1c0.5-3.1,1.6-10.5,2.7-17.3
			l-0.1-0.6c0.8-0.4,2.2-0.9,3.4-1c0.4,0,0.5,0.2,0.9,1.2c1.2,3.8,2.3,6.8,3.4,10.2c1.4-3.9,3.2-9,4.2-11.7L28.4,19.6z"/>
		<path class="st33" d="M43,22.3c3.4-0.4,5.2,1.5,5.5,4.4c0.6,4.6-1.9,8.6-6.4,9.1c-3.2,0.4-5-1-5.5-4.4C36,27.1,38.2,22.9,43,22.3
			L43,22.3z M42.8,24.7c-1.9,0.2-2.7,3.5-2.3,6.7c0.2,1.3,0.7,2.3,1.8,2.1c1.8-0.2,2.8-3.3,2.3-6.9C44.5,25.7,44,24.5,42.8,24.7
			L42.8,24.7z"/>
		<path class="st33" d="M54.2,34.3c-1.8,0.2-3.2-1.2-3.5-4c-0.6-4.6,1.7-9.2,6.6-9.8c0.9-0.1,1.6,0,2.2,0.2c0.1-1.3,0.2-5.5,0-6.7
			c0.8-0.2,2.5-0.7,3.2-0.8c0.3,0,0.4,0.3,0.4,1C63,18.6,62.8,27,62.8,28.8c0,1.6,0.2,3.1,0.3,3.9c-0.9,0.5-2.7,0.8-3.2,0.9
			c-0.2,0-0.5-1.3-0.6-2.4c0-0.4,0-0.9,0-1C58.2,32.7,56.4,34.1,54.2,34.3L54.2,34.3z M55.7,31.2c1.3-0.2,3.5-2.8,3.7-7
			c0-0.2,0-0.7,0.1-0.9c-0.4-0.3-0.9-0.5-1.7-0.4c-2.9,0.4-3.7,4-3.4,6.4C54.5,30.6,55.1,31.3,55.7,31.2L55.7,31.2z"/>
		<path class="st33" d="M71.9,18.6c3.4-0.4,5.2,1.5,5.5,4.4c0.6,4.6-1.9,8.6-6.4,9.1c-3.2,0.4-5-1-5.5-4.4
			C65,23.4,67.2,19.2,71.9,18.6L71.9,18.6z M71.7,21c-1.9,0.2-2.7,3.5-2.3,6.7c0.2,1.3,0.7,2.3,1.8,2.1c1.8-0.2,2.8-3.3,2.3-6.9
			C73.4,22,72.9,20.8,71.7,21L71.7,21z"/>
	</g>
	<g>
		<path class="st33" d="M27.2,48.9c-1.7,0.7-3.4,1.7-5.4,1.8c-0.9,0.1-1.1,0.9-1,1.7c0.1,1.7,0.3,3.4,0.4,5c0.1,2.1,0,3.9-2.7,4.4
			c-1.1,0.2-1.9,1.5-3.4,1.2c-1.1-0.3-1.8-0.7-1.6-1.9c0.8-4.4,0.1-8.7,0.1-13.1c0-2.8,0.7-3.3,3.6-2.7c5.1,1.1,9.9-0.2,14-3.1
			c1.4-1,2.6-1.8,4.3-1.9c0.6-0.1,1.4-0.4,1.8,0.3c0.5,0.7,0.3,1.5,0,2.3c-0.1,0.3-0.3,0.5-0.5,0.7c-4.5,5.3-6.9,11.6-9.1,18.1
			C25.9,67,24,72.2,22.3,77.5c-0.5,1.5-1.1,3-0.2,4.6c0.4,0.7,0.1,1.9-0.1,2.8c-0.2,1.1-0.5,2,0,3.1c0.4,1-0.2,1.9-1.5,2.2
			c-3.2,0.6-4.4-0.3-4.8-3.6c-0.5-4.9,1.6-9.3,3-13.8c2.5-7.8,5-15.6,8.4-23C27.4,49.6,27.6,49.3,27.2,48.9z"/>
		<path class="st33" d="M54.9,65.7c0.3-8,3-15.2,7-22c1.6-2.8,4.4-4.3,7.3-5.4c1.5-0.6,2.6,0.3,3.2,1.5c0.6,1.1-0.2,2-1.1,2.2
			c-4.7,1.1-6,5.4-7.8,8.9c-1.9,3.7-2.9,7.8-3.5,11.9c-0.3,1.9,0,3.7,0.2,5.4c0.1,1.2,0.6,2.9,2.7,2c0.9-0.4,1.7,0.4,2.8,0
			c2.3-1,3-3.2,3.8-5.2c1.4-3.1,2.3-6.3,3.5-9.4c0.3-0.7,0.6-1.3,0.4-2.1c-0.9-3.9,0.8-7.6,1.2-11.4c0.1-0.7,0.2-1.9,1.1-1.9
			c0.8,0,0.7,1.1,1,1.8c0.7,1.8,0.3,3.8,0.5,5.6c1,8.1-0.9,15.7-4.9,22.7c-3.3,5.9-11.4,6.9-15.7,2.2C54.8,70.6,55.1,68,54.9,65.7z"
			/>
		<path class="st33" d="M32.8,67.4c0.3-4.9,1.6-10.1,3.8-15.1c1-2.1,1.8-4.3,3-6.4c1.8-3.3,4.8-5,8.1-6.3c0.9-0.3,1.8-0.3,2.7,0.3
			c1.7,1.2,1.7,3.1-0.3,3.4c-4.8,0.9-6.2,4.8-8,8.3c-1.9,3.7-3,7.7-3.9,11.8c-0.4,1.9-0.1,3.8-0.3,5.7c-0.1,1.1,0.6,2.5,2,2.5
			c1.9,0.1,4,0.5,5.4-1.6c2.7-4,3.9-8.5,5.7-12.8c0.9-2.1-0.4-4.1,0.2-6.2c0.8-2.6,1.4-5.2,2.1-7.8c0.1-0.4,0.3-1.1,1-1
			c0.7,0.1,0.6,0.8,0.7,1.2c0.6,2,0.1,4.1,0.2,6.1c0.6,7.9-0.8,15.2-5,22c-2.6,4.2-6.8,6-11.2,4.9C34.7,75.2,32.6,72.5,32.8,67.4z"
			/>
		<path class="st33" d="M47,92.9c2.6,0.3,4.3-0.6,6.3-0.8c2.6-0.2,5.1-0.1,7.6,0.4c0.6,0.1,1.2,0.2,1.7,0c2.7-1.2,5.1,0.2,7.6,1.1
			c0.6,0.2,1.3,0.6,1.1,1.4c-0.2,0.6-0.9,0.8-1.4,0.8c-4.5,0.1-8.9,1.3-13.5,1.3c-4.5-0.1-8.8,1.2-13.2,1.6
			c-7,0.6-13.5,3.3-20.3,4.3c-1.1,0.2-2.1,1.3-3.3,0.4c-0.7-0.5-1.4-1.1-1.4-2.1c0.1-1,0.8-1.5,1.7-1.8c5.5-2.1,11.2-3.3,16.8-4.8
			C40.3,93.5,44,93.6,47,92.9z"/>
		<path class="st33" d="M58.4,85.4c-8,0.7-15.7,1.5-23.1,3.8c-1.2,0.4-2.4,0.5-3.6,0.6c-1.4,0.1-1.9-1-2.2-2c-0.3-1,0.2-1.7,1.2-2
			c5.5-1.9,11-3.5,16.7-4.1c2.5-0.3,5.1-0.5,7.6-1c1-0.2,2-0.3,2.8,0.1c2.6,1.2,5.5-0.7,8,1.1c0.4,0.3,0.9,0.5,1.3,0.8
			c0.5,0.3,1,0.7,0.8,1.4c-0.2,0.7-0.9,0.8-1.5,0.7C63.6,84.6,61,86.3,58.4,85.4z"/>
	</g>
</g>
</svg>
