<?xml version="1.0" encoding="utf-8"?>
<!-- Generator: Adobe Illustrator 24.3.0, SVG Export Plug-In . SVG Version: 6.00 Build 0)  -->
<svg version="1.1" id="Capa_1" xmlns="http://www.w3.org/2000/svg" xmlns:xlink="http://www.w3.org/1999/xlink" x="0px" y="0px"
	 width="300px" height="46px" viewBox="0 0 300 46" style="enable-background:new 0 0 300 46;" xml:space="preserve">
<style type="text/css">
	.st0{fill:#FFFFFF;}
	.st1{display:none;}
	
		.st2{display:inline;fill:none;stroke:#FFFFFF;stroke-width:1.1058;stroke-linecap:round;stroke-linejoin:round;stroke-miterlimit:6.6919;}
	
		.st3{display:inline;fill:none;stroke:#00C8FF;stroke-width:1.1058;stroke-linecap:round;stroke-linejoin:round;stroke-miterlimit:6.6919;}
	
		.st4{display:inline;fill:none;stroke:#FFBE00;stroke-width:1.1058;stroke-linecap:round;stroke-linejoin:round;stroke-miterlimit:6.6919;}
	.st5{fill:none;stroke:#FFFFFF;stroke-width:1.1207;stroke-linecap:round;stroke-linejoin:round;stroke-miterlimit:6.6919;}
	.st6{fill:none;stroke:#00C8FF;stroke-width:1.1207;stroke-linecap:round;stroke-linejoin:round;stroke-miterlimit:6.6919;}
	.st7{fill:none;stroke:#FFBE00;stroke-width:1.1207;stroke-linecap:round;stroke-linejoin:round;stroke-miterlimit:6.6919;}
</style>
<g>
	<g id="UI">
		<g id="Desktop-HD-Copy" transform="translate(-53.000000, -42.000000)">
			<g id="conectados" transform="translate(53.000000, 42.000000)">
				<path id="Path" class="st0" d="M13.9,31.8c-5.6,0-9-4.5-9-9.5c0-5,3.3-9.2,8.9-9.2c4.2,0,7.3,2.8,7.3,2.8l2.3-3.6
					c0,0-3.3-3.6-9.8-3.6C5.8,8.7,0,14.6,0,22.3c0,7.8,5.6,13.9,13.8,13.9c6.8,0,10.4-4.3,10.4-4.3l-2.5-3.5
					C21.7,28.4,18.5,31.8,13.9,31.8z"/>
				<path id="Shape" class="st0" d="M39.3,8.7c-7.9,0-13.8,6-13.8,13.6c0,7.8,6,13.9,13.8,13.9S53,30.1,53,22.3
					C53,14.6,47.1,8.7,39.3,8.7z M39.3,31.8c-4.9,0-8.8-4.1-8.8-9.5c0-5.2,3.9-9.2,8.8-9.2S48,17,48,22.3
					C48,27.8,44.1,31.8,39.3,31.8z"/>
				<path id="Path_1_" class="st0" d="M88.3,24.4h9v-4.1l0,0l0,0h-9v-7h11.1V9.1H83.4v11.1h-4.9V9.1h-4.8v15.4
					c0,1.6,0.3,4.1,0.3,4.1h-0.1c0,0-1.2-2.6-2.2-4.1L61.6,9.1h-4.8v26.6h4.8V20.4c0-1.6-0.3-4.1-0.3-4.1h0.1c0,0,1.2,2.6,2.2,4.1
					l10.1,15.3h4.8V24.4h4.9v11.3H100v-4.1H88.3V24.4z"/>
				<path id="Path_2_" class="st0" d="M115.1,31.8c-5.6,0-9-4.5-9-9.5c0-5,3.3-9.2,8.9-9.2c4.2,0,7.3,2.8,7.3,2.8l2.3-3.6
					c0,0-3.3-3.6-9.8-3.6c-7.8,0-13.7,6-13.7,13.7c0,7.8,5.6,13.9,13.8,13.9c6.8,0,10.4-4.3,10.4-4.3l-2.5-3.5
					C122.8,28.4,119.7,31.8,115.1,31.8z"/>
				<polygon id="Path_3_" class="st0" points="149.1,9.1 126.8,9.1 126.8,13.3 135.6,13.3 135.6,35.8 140.4,35.8 140.4,13.3 
					149.1,13.3 				"/>
				<path id="Shape_1_" class="st0" d="M155.7,9.1l-9.4,26.6h5l2.3-6.8h9.4l2.3,6.8h5l-9.4-26.6C160.9,9.1,155.7,9.1,155.7,9.1z
					 M154.7,25l2.3-7.1c0.5-1.5,1.1-4.1,1.1-4.1h0.1c0,0,0.5,2.6,1.1,4.1l2.3,7.1C161.7,25,154.7,25,154.7,25z"/>
				<path id="Shape_2_" class="st0" d="M182,9.1h-9.1v26.6h9.1c8.2,0,13.6-5,13.6-13.4S190.3,9.1,182,9.1z M181.8,31.6h-3.9V13.3
					h3.9c5.4,0,8.8,3.2,8.8,9.1C190.7,28.4,187.2,31.6,181.8,31.6z"/>
				<path id="Shape_3_" class="st0" d="M212.3,8.7c-7.8,0-13.8,6-13.8,13.6c0,7.8,6,13.9,13.8,13.9s13.8-6.1,13.8-13.9
					C226,14.6,220.1,8.7,212.3,8.7z M212.3,31.8c-4.9,0-8.8-4.1-8.8-9.5c0-5.2,3.9-9.2,8.8-9.2c4.9,0,8.8,3.9,8.8,9.2
					C221,27.8,217.2,31.8,212.3,31.8z"/>
				<path id="Path_4_" class="st0" d="M233.5,16.3c0-1.9,1.7-3.2,4-3.2c3.3,0,5.9,2.3,5.9,2.3l2.1-3.9c0,0-2.7-2.9-8-2.9
					c-5.1,0-8.9,3.3-8.9,7.7c0,8.2,12.6,7.4,12.6,12.1c0,2.2-1.8,3.2-3.9,3.2c-3.7,0-6.6-2.8-6.6-2.8l-2.6,3.6c0,0,3.3,3.6,9.2,3.6
					c5.6,0,8.8-3.5,8.8-7.8C246.1,19.9,233.5,21.1,233.5,16.3z"/>
			</g>
		</g>
	</g>
	<g>
		<g class="st1">
			<path class="st2" d="M294.6,9.4c0.9,1.7,1.5,3.5,1.5,5.6c0,3.1-0.9,6.2-2.8,9.2c-1.4,2.3-3.3,4.5-5.8,6.6
				c-1.2,1.1-3.1,2.4-4.1,3.2c-0.5,0.3-1.1,0.3-1.6,0.1h-0.1c-0.9-0.5-0.9-1.8-0.1-2.3c4.3-3,11.1-8.8,11.4-16.1
				c0.2-4.8-3.5-8.9-8.3-8.9c-2.9,0-5.4,1.5-6.9,3.7c-1.5-2.3-4.1-3.7-7.1-3.7c-3.1,0.1-5.6,1.8-6.9,4.3"/>
			<path class="st3" d="M262.8,24.2c-1.9-3-2.8-6.1-2.8-9.2c0-6.2,5-11.2,11.2-11.2c2.5,0,5,0.9,6.9,2.3c1.9-1.5,4.3-2.3,6.9-2.3
				c3.1,0,5.9,1.3,7.9,3.3"/>
			<path class="st4" d="M263.1,13.5c-0.1,0.7-0.2,1.4-0.2,2.1c0,9.9,17,20.7,22.2,23.2c0.5,0.3,0.9,0.7,0.9,1.3l0,0
				c0,1.1-1.1,1.8-2.1,1.3c-5.6-2.9-11.7-7.4-15.3-10.6c-1.4-1.3-2.7-2.5-3.7-3.8"/>
		</g>
		<g>
			<g>
				<path class="st5" d="M294.8,9.6c0.9,1.7,1.5,3.6,1.5,5.7c0,3.1-0.9,6.2-2.8,9.3c-1.4,2.3-3.4,4.6-5.8,6.8
					c-1.2,1.1-3.1,2.5-4.1,3.2c-0.5,0.3-1.2,0.3-1.7,0h-0.1c-0.9-0.5-0.9-1.8-0.1-2.4c4.4-3.1,11.2-9,11.6-16.3c0.2-4.8-3.5-9-8.4-9
					c-2.9,0-5.5,1.5-7,3.7c-1.5-2.3-4.2-3.8-7.2-3.7c-3.1,0.1-5.6,1.8-7,4.3"/>
				<path class="st6" d="M262.5,24.6c-1.9-3.1-2.8-6.2-2.8-9.3c0-6.2,5.1-11.4,11.4-11.4c2.5,0,5,0.9,7,2.4c1.9-1.5,4.4-2.4,7-2.4
					c3.1,0,6,1.3,8,3.3"/>
				<path class="st7" d="M262.9,13.7c-0.1,0.7-0.2,1.4-0.2,2.1c0,10,17.3,21.1,22.5,23.5c0.5,0.3,0.9,0.7,0.9,1.3l0,0
					c0,1.1-1.1,1.8-2.1,1.3c-5.7-2.9-11.8-7.5-15.5-10.7c-1.4-1.3-2.7-2.5-3.7-3.9"/>
			</g>
		</g>
	</g>
</g>
</svg>
