<?xml version="1.0" encoding="UTF-8"?>
<svg width="173px" height="69px" viewBox="0 0 173 69" version="1.1" xmlns="http://www.w3.org/2000/svg" xmlns:xlink="http://www.w3.org/1999/xlink">
    <!-- Generator: Sketch 63.1 (92452) - https://sketch.com -->
    <title>conTigo</title>
    <desc>Created with Sketch.</desc>
    <defs>
        <polygon id="path-1" points="0.141786585 0.023220339 68.9646585 0.023220339 68.9646585 49.9935593 0.141786585 49.9935593"></polygon>
        <polygon id="path-3" points="0.283083333 0.103425 14.4039167 0.103425 14.4039167 7 0.283083333 7"></polygon>
    </defs>
    <g id="UI" stroke="none" stroke-width="1" fill="none" fill-rule="evenodd">
        <g id="Desktop-HD-Copy" transform="translate(-1291.000000, -29.000000)">
            <g id="conTigo" transform="translate(1291.000000, 29.000000)">
                <path d="M7.88208112,24.0296317 C5.87112785,24.0296317 3.90039363,25.7867627 3.57864111,29.0659097 C6.47441383,29.1448352 10.0941297,29.1057879 10.8180729,29.0659097 C11.3409208,29.0276932 11.6626733,28.7153143 11.6626733,28.2467461 C11.7028923,25.8648574 10.4561013,24.0296317 7.92230019,24.0296317 L7.88208112,24.0296317 Z M14.1160363,36.4849072 C14.1160363,37.6953752 13.2714359,38.789532 12.5877118,39.1401274 C11.9442067,39.4915536 10.255006,40 8.64624337,40 C3.05579326,40 0,36.7582387 0,31.2924398 C0,26.372473 3.05579326,22 8.36470991,22 C12.9496834,22 14.9204176,25.3181944 15,28.4810302 C15,28.8715037 14.9597809,29.3791194 14.8801985,29.6906674 C14.7595413,30.3553032 12.8290262,30.8238715 11.461578,31.0581556 C10.3756632,31.1752977 6.35375663,31.2533924 3.45798391,31.1362503 C3.49820298,35.1190806 5.99178504,37.3829964 9.53106281,37.3829964 C11.3409208,37.3829964 13.311655,36.7972861 14.0347424,36.4068125 L14.1160363,36.4849072 Z" id="Fill-1" fill="#FFBE00"></path>
                <path d="M23.2221653,22 C24.6478095,22 26.1890465,22.4295209 27.1137887,23.3276101 C27.1908506,24.0296317 26.7284795,25.1237884 25.8422682,25.0847411 C25.0331188,24.6543894 23.9542529,24.3420105 23.0295107,24.3420105 C21.5268046,24.3420105 20.4094078,25.2018831 20.4094078,26.5677098 C20.4094078,27.7000831 21.1800263,28.3638881 22.0662376,28.8715037 C23.1065725,29.4189975 24.3780931,30.0047078 25.4954899,30.6685129 C27.2293815,31.643866 28,33.0495708 28,34.611465 C28,38.3209637 24.8019332,40 21.7194592,40 C19.8699748,40 18.2524958,39.4142897 17.4433464,38.7106065 C17.0957483,38.3982276 16.9424444,37.9695375 17.0195062,37.579064 C17.0957483,37.032401 17.3654647,36.4466907 17.8278358,36.2514539 C18.9452327,37.032401 20.5250006,37.6181113 21.9506448,37.6181113 C23.877191,37.6181113 24.8789951,36.6028801 24.8789951,35.27527 C24.8789951,34.2990861 24.3395621,33.5962337 22.9909798,32.8933813 C21.9506448,32.3467184 21.0259026,31.9180282 20.1011604,31.4095818 C18.4836814,30.5114927 17.3654647,29.145666 17.3654647,27.1143727 C17.3654647,23.9523678 20.1011604,22 23.1836344,22 L23.2221653,22 Z" id="Fill-3" fill="#FFBE00"></path>
                <path d="M53.7138799,36.7200222 C53.6730056,37.6181113 53.2642625,38.5942952 52.651148,39.0229853 C51.711039,39.6095264 49.9951878,40 48.2784671,40 C44.109288,40 39,38.0866796 39,31.2542232 C39,25.8266408 43.2918019,22 48.8498377,22 C51.5475417,22 53.468634,22.8980892 54,23.4447521 C54,24.303794 53.468634,25.3580726 52.4876507,25.2791471 C51.3840445,24.7723622 50.0360622,24.4599834 48.7280844,24.4599834 C45.1720199,24.4599834 42.6378131,27.0371088 42.6378131,30.9019662 C42.6378131,36.0171698 46.4799977,37.4228745 49.299455,37.4228745 C50.77093,37.4228745 52.4876507,37.1104957 53.6321313,36.6419274 L53.7138799,36.7200222 Z" id="Fill-5" fill="#FFBE00"></path>
                <path d="M64.3638311,24.1476045 C61.75717,24.1476045 59.5006574,26.4896151 59.5006574,30.7457768 C59.5006574,35.5095541 61.9127915,37.8523955 64.752885,37.8523955 C67.0872085,37.8523955 69.4993426,35.9000277 69.4993426,31.097203 C69.4993426,27.5056771 67.943127,24.1476045 64.4027365,24.1476045 L64.3638311,24.1476045 Z M64.7139796,22 C70.1599065,22 73,25.8648574 73,30.8238715 C73,36.0171698 69.6930418,40 64.4416419,40 C58.7614549,40 56,35.7828856 56,31.1752977 C56,26.0218776 59.5395627,22 64.6750743,22 L64.7139796,22 Z" id="Fill-7" fill="#FFBE00"></path>
                <path d="M88.435251,29.239899 C88.435251,26.1540404 87.0174531,24.6506734 84.6679595,24.6506734 C82.6020254,24.6506734 81.0221935,25.956229 80.0904977,27.0244108 L80.0904977,38.8526936 C80.0904977,39.6439394 79.9284637,39.7626263 79.2406809,39.8417508 C78.3486318,40 77.4583064,39.9604377 76.5671192,40 C76.6481362,38.5757576 76.6886447,36.2415825 76.6886447,32.7213805 L76.6886447,25.9957912 C76.6886447,24.5715488 76.4861021,23.8989899 76,23.5429293 L76,23.3846801 C76.3240681,22.7516835 77.4583064,22 78.1874596,22 C79.4423616,22 79.8078,23.8207071 79.9284637,24.9276094 C81.5082956,23.3846801 83.6957552,22 85.9237233,22 C90.5822021,22 91.837966,25.4023569 91.837966,29.2003367 L91.837966,34.7382155 C91.837966,37.0328283 91.918983,38.6944444 92,39.6835017 C91.1493213,39.8021886 90.0555915,40 89.0023702,40 C88.5567766,40 88.3947425,39.8021886 88.3947425,39.4461279 L88.435251,29.239899 Z" id="Fill-9" fill="#FFBE00"></path>
                <g id="Group-13" transform="translate(104.000000, 8.000000)">
                    <mask id="mask-2" fill="white">
                        <use xlink:href="#path-1"></use>
                    </mask>
                    <g id="Clip-12"></g>
                    <path d="M62.1618476,36.8554237 L62.1618476,39.4918644 C62.1618476,40.489322 61.7192378,42.0816949 61.1133841,43.1766102 C59.4565427,46.1757627 53.94075,49.9935593 48.0311524,49.9935593 C42.2048598,49.9935593 37.426189,46.9859322 35.0044573,43.4011864 C34.3052012,42.3469492 33.7952744,40.489322 33.7952744,39.3579661 L33.7952744,36.8062712 C33.7952744,36.750339 33.839872,36.7045763 33.89625,36.7045763 L33.9012988,36.7045763 C33.9324329,36.7045763 33.9618841,36.7198305 33.9812378,36.7452542 C37.013872,40.8172881 41.7454207,44.1545763 48.0311524,44.1545763 C54.8629939,44.1545763 59.4212012,40.7808475 61.9758841,36.7994915 C61.9943963,36.7698305 62.026372,36.7528814 62.0600305,36.7528814 C62.1164085,36.7528814 62.1618476,36.7986441 62.1618476,36.8554237 L62.1618476,36.8554237 Z M63.5620427,22.3105085 C63.5620427,25.7554237 62.0793841,28.2537288 59.0484329,28.2537288 C55.5908598,28.2537288 54.0762256,25.7554237 54.0762256,21.5655932 C54.0762256,18.0766102 55.5908598,15.5681356 58.5755305,15.5681356 C61.9969207,15.5681356 63.5620427,18.0766102 63.5620427,22.3105085 L63.5620427,22.3105085 Z M48.6614085,22.3105085 C48.6614085,27.9079661 52.2864329,32.9537288 58.5755305,32.9537288 C65.3518354,32.9537288 68.9650793,27.9079661 68.9650793,21.5655932 C68.9650793,15.9605085 65.3518354,10.8723729 59.0484329,10.8723729 C52.2864329,10.8723729 48.6614085,15.9605085 48.6614085,22.3105085 L48.6614085,22.3105085 Z M49.6804207,6.3359322 C49.6804207,5.73338983 49.9816646,4.78169492 50.3754695,4.1240678 C51.4811524,2.31728814 55.0060427,0.023220339 58.9154817,0.023220339 C62.785372,0.023220339 66.0805427,1.83338983 67.6877378,3.9859322 C68.1539085,4.61305085 68.4904939,5.73338983 68.4904939,6.41559322 L68.4904939,8.64101695 L68.3886768,8.64101695 C66.3792622,6.1859322 63.5224939,4.16898305 59.3404207,4.16898305 C54.7939939,4.16898305 51.4811524,6.20372881 49.7889695,8.61644068 L49.6804207,8.61644068 L49.6804207,6.3359322 Z M43.6824695,22.2545763 C45.0582622,22.2545763 46.3574817,23.3867797 46.3574817,24.5859322 L46.3574817,27.9689831 C46.3574817,31.7808475 43.8027988,33.6257627 38.5335549,33.6257627 C32.8023476,33.6257627 26.9920427,29.8367797 26.9920427,22.5927119 C26.9920427,15.7876271 32.1813476,11.0274576 39.612311,11.0274576 C43.9971768,11.0274576 46.00575,13.3867797 46.00575,15.5783051 L46.00575,17.3181356 C46.00575,17.3749153 45.9611524,17.4198305 45.9047744,17.4198305 L45.3409939,17.4198305 C45.3174329,17.4198305 45.2947134,17.4122034 45.2762012,17.3961017 L45.1979451,17.3308475 C43.8894695,16.2859322 41.5485183,15.6308475 39.0847134,15.6308475 C35.2005183,15.6308475 32.3748841,18.3088136 32.3748841,22.0054237 C32.3748841,27.8037288 36.0024329,29.0155932 39.0552622,29.0155932 C41.1639695,29.0155932 41.3389939,28.2537288 41.3389939,27.420678 L41.3389939,25.7240678 C41.3389939,24.1316949 41.0209207,22.7486441 41.0209207,22.7384746 L40.9409817,22.3791525 C40.9266768,22.3147458 40.9754817,22.2545763 41.0402744,22.2545763 L43.6824695,22.2545763 L43.6824695,22.2545763 Z M18.7953476,9.95881356 C20.4446159,9.95881356 21.8523841,8.57322034 21.8523841,6.88847458 C21.8523841,5.2020339 20.4446159,3.85627119 18.7953476,3.85627119 C17.1385061,3.85627119 15.7904817,5.2020339 15.7904817,6.88847458 C15.7904817,8.57322034 17.1385061,9.95881356 18.7953476,9.95881356 L18.7953476,9.95881356 Z M22.4944207,32.63 C24.6780183,32.63 25.5556646,31.7291525 25.5556646,29.48 L25.5556646,28.4494915 C25.5556646,28.3935593 25.5102256,28.3477966 25.4538476,28.3477966 L24.5963963,28.3477966 C22.3227622,28.3477966 21.429128,27.6927119 21.429128,25.5850847 L21.429128,15.7901695 C21.429128,13.1537288 20.0264085,11.8994915 17.737628,11.8994915 L16.3475305,11.8994915 C16.2911524,11.8994915 16.2465549,11.9452542 16.2465549,12.0020339 L16.2465549,26.0918644 C16.2465549,30.3333898 18.4486646,32.63 22.4944207,32.63 L22.4944207,32.63 Z M1.65894512,8.13508475 C2.35231098,7.33169492 3.25940854,6.68762712 4.08740854,6.68762712 L5.18888415,6.68762712 C5.24442073,6.68762712 5.29070122,6.73338983 5.29070122,6.78932203 L5.29070122,11.3249153 C5.29070122,11.3808475 5.33614024,11.4274576 5.39167683,11.4274576 L12.4044329,11.4274576 C12.4599695,11.4274576 12.5054085,11.4732203 12.5054085,11.5291525 L12.5054085,13.5723729 C12.5054085,14.6638983 11.5478232,16.0554237 9.39535976,16.0554237 L5.39167683,16.0554237 C5.33614024,16.0554237 5.29070122,16.1011864 5.29070122,16.1571186 L5.29070122,24.259661 C5.29070122,26.9766102 6.48137195,28.0486441 8.54127439,28.0486441 C10.1997988,28.0486441 11.4889207,27.8138983 12.2958841,27.309661 C12.311872,27.3011864 12.3295427,27.2961017 12.3480549,27.2961017 L12.4044329,27.2961017 C12.4599695,27.2961017 12.5054085,27.3410169 12.5054085,27.3977966 L12.5054085,29.1757627 C12.5054085,31.2952542 10.9571159,32.6664407 7.9362622,32.6664407 C2.69394512,32.6664407 0.141786585,29.7901695 0.141786585,24.8791525 L0.141786585,12.2791525 C0.141786585,10.2266102 0.522128049,9.44694915 1.65894512,8.13508475 L1.65894512,8.13508475 Z" id="Fill-11" fill="#00377D" mask="url(#mask-2)"></path>
                </g>
                <path d="M4.20402267,52.0156461 C3.13101456,52.0156461 2.08023114,52.8937146 1.90865652,54.5341246 C3.45282809,54.5729701 5.3837093,54.5535473 5.76952995,54.5341246 C6.04867207,54.5147019 6.22024669,54.3585109 6.22024669,54.1238198 C6.2415824,52.9333693 5.57661962,52.0156461 4.22535837,52.0156461 L4.20402267,52.0156461 Z M7.52794755,58.2430537 C7.52794755,58.8483949 7.0772308,59.395468 6.71274586,59.5710817 C6.37048561,59.7466954 5.46905212,60 4.61117902,60 C1.63040338,60 0,58.379822 0,55.6468843 C0,53.1866739 1.63040338,51 4.46182909,51 C6.90654517,51 7.95732859,52.6598327 8,54.2411654 C8,54.4362018 7.9786643,54.6903156 7.9351039,54.8465066 C7.87109679,55.1783113 6.84164907,55.4121931 6.11267919,55.5295387 C5.53394822,55.5886161 3.38882098,55.6274616 1.84464941,55.5691934 C1.86598511,57.5608309 3.19591066,58.6922039 5.08323147,58.6922039 C6.04867207,58.6922039 7.09856651,58.400054 7.48527614,58.2042083 L7.52794755,58.2430537 Z" id="Fill-14" fill="#00377D"></path>
                <path d="M12.3937425,51 C13.1716128,51 14.0122005,51.2152684 14.5165532,51.6636094 C14.5583648,52.0156461 14.3057529,52.5627192 13.8231772,52.5424872 C13.381542,52.3280281 12.7926951,52.1710278 12.2883424,52.1710278 C11.4695316,52.1710278 10.8597788,52.6015646 10.8597788,53.2845967 C10.8597788,53.8502832 11.2805082,54.1828972 11.763084,54.4362018 C12.3310251,54.7097383 13.0244011,55.0018883 13.6332828,55.333693 C14.5792706,55.822498 15,56.5249528 15,57.3059077 C15,59.1607769 13.2552361,60 11.5749317,60 C10.5653554,60 9.68295604,59.70785 9.24132084,59.3558133 C9.05316856,59.2004316 8.96867425,58.9851632 9.01048587,58.7901268 C9.05316856,58.5165902 9.19950922,58.223631 9.45212107,58.1265174 C10.0610027,58.5165902 10.9233673,58.8095495 11.7003666,58.8095495 C12.7508834,58.8095495 13.2979188,58.3013218 13.2979188,57.6377124 C13.2979188,57.150526 13.0034953,56.7984893 12.2674366,56.4464527 C11.7003666,56.1745347 11.1960139,55.9592663 10.6916613,55.7051524 C9.80926197,55.2568114 9.19950922,54.5729701 9.19950922,53.557324 C9.19950922,51.9759914 10.6916613,51 12.3728367,51 L12.3937425,51 Z" id="Fill-16" fill="#00377D"></path>
                <path d="M27.8671637,58.3603992 C27.8481871,58.8103588 27.6568395,59.2975452 27.3713995,59.5128136 C26.9325652,59.8049636 26.1315938,60 25.3306224,60 C23.3847283,60 21,59.0442406 21,55.6274616 C21,52.9139466 23.0028239,51 25.5970857,51 C26.8558681,51 27.7525133,51.4491503 28,51.7226868 C28,52.1524144 27.7525133,52.6792555 27.2947024,52.64041 C26.7799616,52.3862962 26.1505704,52.2309145 25.5401559,52.2309145 C23.8804925,52.2309145 22.6976166,53.5192878 22.6976166,55.4518479 C22.6976166,58.0091718 24.490907,58.7124359 25.8074099,58.7124359 C26.4937309,58.7124359 27.2947024,58.5554357 27.8292104,58.3215538 L27.8671637,58.3603992 Z" id="Fill-18" fill="#00377D"></path>
                <path d="M33.4278668,52.0739142 C32.0483733,52.0739142 30.8541212,53.244942 30.8541212,55.3733477 C30.8541212,57.7558673 32.1303234,58.9268951 33.6335958,58.9268951 C34.8696766,58.9268951 36.1467324,57.9509037 36.1467324,55.5489614 C36.1467324,53.7523604 35.3229631,52.0739142 33.4483544,52.0739142 L33.4278668,52.0739142 Z M33.6131082,51 C36.4967277,51 38,52.9333693 38,55.4121931 C38,58.0091718 36.2491701,60 33.4688419,60 C30.4622973,60 29,57.891017 29,55.5886161 C29,53.0110602 30.8746087,51 33.5926207,51 L33.6131082,51 Z" id="Fill-20" fill="#00377D"></path>
                <path d="M46.2176514,54.6198415 C46.2176514,53.0767969 45.5090776,52.3249522 44.3345577,52.3249522 C43.3010809,52.3249522 42.5110715,52.9784094 42.0459649,53.5121618 L42.0459649,59.4260727 C42.0459649,59.8220825 41.9645293,59.8811151 41.6203169,59.9204701 C41.1745199,60 40.7287228,59.9803225 40.2837653,60 C40.3240634,59.2875102 40.3442124,58.120798 40.3442124,56.360481 L40.3442124,52.997267 C40.3442124,52.2855972 40.2434673,51.9494397 40,51.7715223 L40,51.6928122 C40.1620317,51.3763323 40.7287228,51 41.0939238,51 C41.7219016,51 41.9040823,51.9100847 41.9645293,52.4635146 C42.7545388,51.6928122 43.8484626,51 44.9616959,51 C47.2914262,51 47.9194039,52.7012845 47.9194039,54.600164 L47.9194039,57.3697732 C47.9194039,58.515988 47.959702,59.3473627 48,59.84176 C47.5751915,59.9007926 47.0278098,60 46.5014167,60 C46.278938,60 46.1975024,59.9007926 46.1975024,59.7228751 L46.2176514,54.6198415 Z" id="Fill-22" fill="#00377D"></path>
                <path d="M52.1138786,59.466199 C52.1138786,59.802387 52.0089219,59.8819242 51.7166047,59.9212828 C51.2135068,60 50.7329616,60 50.2931846,60 C50.3348203,59.2882653 50.3565056,58.1206268 50.3565056,56.3609694 L50.3565056,52.9785897 C50.3565056,52.3062136 50.2515489,51.9101676 50,51.7519133 L50,51.6723761 C50.1674102,51.3763666 50.7745973,51 51.1302354,51 C51.7998761,51 51.9672862,51.8511297 52.0297398,52.4833273 C52.8667906,51.731414 53.997026,51 55.1688971,51 C56.5081784,51 57.2619579,51.5928389 57.7008674,52.5628644 C58.5379182,51.7519133 59.7306072,51 60.9657993,51 C63.1204461,51 63.9158612,52.602223 63.9158612,54.4610969 L63.9158612,57.3892128 C63.9158612,58.5166727 63.9574969,59.3473032 64,59.8425656 C63.560223,59.9016035 62.9747212,60 62.4299876,60 C62.2417596,60 62.1584882,59.9016035 62.1584882,59.6843112 L62.1584882,54.6398506 C62.1584882,53.0966655 61.4671623,52.3447522 60.2536555,52.3447522 C59.2283767,52.3447522 58.5171004,52.9580904 58.0148699,53.4336735 L58.0148699,59.4071611 C58.0148699,59.802387 57.9732342,59.8819242 57.617596,59.9212828 C57.0728625,60 56.6339529,60 56.194176,60 C56.2358116,59.2882653 56.2566295,58.1206268 56.2566295,56.3404701 L56.2566295,54.6398506 C56.2566295,53.0966655 55.6086741,52.3447522 54.4151177,52.3447522 C53.4739777,52.3447522 52.6369269,52.9785897 52.1138786,53.5123907 L52.1138786,59.466199 Z" id="Fill-24" fill="#00377D"></path>
                <path d="M67.8955095,59.4070434 C67.8955095,59.7633088 67.7702936,59.8615889 67.4585492,59.9017199 C67.1873921,59.960688 66.6666667,59.980344 66.0829016,60 C66.1036269,59.1891892 66.1459413,58.044226 66.1459413,56.8984439 L66.1459413,53.5389025 C66.1459413,52.3333333 66.1036269,51.7215397 66.0621762,51.3063063 C66.4162349,51.1883702 67.291019,51.1089271 67.6036269,51.1089271 C67.8126079,51.1089271 67.8955095,51.2072072 67.8955095,52.3333333 L67.8955095,59.4070434 Z M67.0621762,47 C67.6252159,47 68,47.4135954 68,47.96724 C68,48.5012285 67.6036269,48.97543 67,48.97543 C66.4378238,48.97543 66,48.6396396 66,48.006552 C66,47.3153153 66.6036269,47 67.0414508,47 L67.0621762,47 Z" id="Fill-26" fill="#00377D"></path>
                <path d="M79.618603,55.4651197 C80.329184,55.4651197 81,56.0166381 81,56.6001641 L81,58.246512 C81,60.1013206 79.6808437,61 76.9595436,61 C74.0005187,61 71,59.1558606 71,55.6292621 C71,52.3168694 73.6798064,50 77.5162517,50 C79.7811203,50 80.8184647,51.1481758 80.8184647,52.2142804 L80.8184647,53.0620757 C80.8184647,53.0891591 80.7951245,53.1121391 80.7665975,53.1121391 L80.4752766,53.1121391 C80.4631743,53.1121391 80.4510719,53.1080355 80.4415629,53.0998284 L80.4009336,53.0678206 C79.7257953,52.5598 78.5164246,52.2405432 77.2448133,52.2405432 C75.2384163,52.2405432 73.780083,53.5438335 73.780083,55.3436544 C73.780083,58.1660822 75.6533541,58.756174 77.2292531,58.756174 C78.3184647,58.756174 78.4083679,58.3852123 78.4083679,57.9789599 L78.4083679,57.1541446 C78.4083679,56.378572 78.2441217,55.7055883 78.2441217,55.6998433 L78.2026279,55.5250317 C78.1957123,55.4938447 78.2207815,55.4651197 78.2544952,55.4651197 L79.618603,55.4651197" id="Fill-28" fill="#00377D"></path>
                <path d="M83,46.9307241 C83,46.651272 83.1441794,46.209002 83.3332147,45.9037182 C83.8618726,45.0645793 85.5487718,44 87.4190993,44 C89.2702029,44 90.8473656,44.8399217 91.6163225,45.8387476 C91.8389996,46.1307241 92,46.651272 92,46.9675147 L92,48 L91.9511392,48 C90.989943,46.860274 89.6234425,45.9248532 87.6225525,45.9248532 C85.4470452,45.9248532 83.8618726,46.8696673 83.0520648,47.9890411 L83,47.9890411 L83,46.9307241 Z" id="Fill-30" fill="#00377D"></path>
                <path d="M89.3383905,54.6982285 C89.3383905,52.5882712 88.5674472,51.3392639 86.882091,51.3392639 C85.4127639,51.3392639 84.6665567,52.5882712 84.6665567,54.3269701 C84.6665567,56.4142486 85.4127639,57.6582162 87.1154354,57.6582162 C88.6086741,57.6582162 89.3383905,56.4142486 89.3383905,54.6982285 M82,54.6982285 C82,51.5341326 83.7851253,49 87.1154354,49 C90.2198219,49 92,51.5341326 92,54.3269701 C92,57.4860263 90.2198219,60 86.882091,60 C83.7851253,60 82,57.4860263 82,54.6982285" id="Fill-32" fill="#00377D"></path>
                <g id="Group-36" transform="translate(74.000000, 62.000000)">
                    <mask id="mask-4" fill="white">
                        <use xlink:href="#path-3"></use>
                    </mask>
                    <g id="Clip-35"></g>
                    <path d="M14.4039167,0.1813 L14.4039167,1.5498 C14.4039167,2.066925 14.1830833,2.894675 13.88225,3.46255 C13.05725,5.0183 10.3114167,7.000175 7.36975,7.000175 C4.46975,7.000175 2.09141667,5.439175 0.885583333,3.578925 C0.53725,3.03205 0.283083333,2.066925 0.283083333,1.4798 L0.283083333,0.1568 C0.283083333,0.12705 0.306416667,0.103425 0.333916667,0.103425 L0.336416667,0.103425 C0.351416667,0.103425 0.366416667,0.1113 0.376416667,0.1253 C1.88558333,2.238425 4.24141667,3.97005 7.36975,3.97005 C10.7705833,3.97005 13.03975,2.219175 14.3114167,0.152425 C14.3205833,0.13755 14.3364167,0.127925 14.3530833,0.127925 C14.3814167,0.127925 14.4039167,0.152425 14.4039167,0.1813" id="Fill-34" fill="#00377D" mask="url(#mask-4)"></path>
                </g>
                <path d="M1.06911811,2.99872227 C1.06911811,1.5213149 1.04635971,0.617144848 1,0.176443257 C1.38857865,0.109768847 2.16573596,0 2.73722474,0 C2.98841007,0 3.08028659,0.132535718 3.08028659,1.21314903 L3.08028659,12.4786851 C3.51438205,12.6104077 4.6346012,12.6551284 5.59466863,12.6551284 C6.62301127,12.6551284 8.08544937,12.6331746 8.9772416,12.5445464 L9,12.589267 C8.90812349,13.2064119 8.54314614,13.7137879 7.99441576,13.9121849 C7.69687072,13.9560925 6.94247182,14 5.3426404,14 C3.49162364,14 1.98282584,13.8902312 1.38857865,13.7796492 L1.06911811,13.3600883 L1.06911811,2.99872227 Z" id="Fill-37" fill="#FFBE00"></path>
                <path d="M14.9198312,5.31208 C13.3873418,5.31208 12.0599156,6.74384 12.0599156,9.34512 C12.0599156,12.25616 13.478481,13.68792 15.1485232,13.68792 C16.521519,13.68792 17.9400844,12.49464 17.9400844,9.55984 C17.9400844,7.36424 17.0253165,5.31208 14.942616,5.31208 L14.9198312,5.31208 Z M15.1257384,4 C18.3291139,4 20,6.36192 20,9.39264 C20,12.56592 18.0548523,15 14.9654008,15 C11.6253165,15 10,12.42248 10,9.60736 C10,6.45784 12.0827004,4 15.1029536,4 L15.1257384,4 Z" id="Fill-39" fill="#FFBE00"></path>
                <path d="M34.063661,5.52699569 C33.755275,5.37048692 33.2050496,5.23468036 32.4129847,5.23468036 C30.8288548,5.23468036 28.9801623,6.40311361 28.9801623,9.18714806 C28.9801623,11.3426631 30.2348061,12.8473004 32.2807033,12.8473004 C32.8309288,12.8473004 33.6238052,12.6220603 34.063661,12.3529314 L34.063661,5.52699569 Z M35.9115419,4.29231534 L36,4.29231534 C36,4.98873799 35.9115419,6.4925472 35.9115419,9.63597218 L35.9115419,18.3035773 C35.9115419,18.729215 35.8019838,18.841835 35.1422002,18.9312686 C34.7015329,18.9768135 34.2835888,19 33.9971145,19 C34.0417493,18.1238821 34.063661,16.8660152 34.063661,15.0019874 L34.063661,13.4534614 C33.3811542,13.925472 32.2807033,14.3511096 31.51055,14.3511096 C28.9801623,14.3511096 27,12.5781716 27,9.47863531 C27,6.17787347 29.4427412,4 32.5671776,4 C33.5791704,4 34.4596934,4.22524015 34.8995491,4.38174892 L35.9115419,4.29231534 Z" id="Fill-41" fill="#FFBE00"></path>
                <path d="M39.0868012,6.69734714 C39.0868012,5.36040116 39.0434006,4.70203818 39,4.21999353 C39.3705126,4.10999676 40.2200393,4 40.5905519,4 C40.8300589,4 40.8951598,4.10999676 40.8951598,5.36040116 C40.9168602,6.8073439 40.9168602,8.43060498 40.9168602,9.85490133 C40.9168602,12.1802006 42.0943026,12.4867357 43.0531345,12.4867357 C44.0770673,12.4867357 44.9490981,11.8291815 45.2979103,11.3681656 L45.2979103,4.87754772 C45.2979103,4.35101909 45.3630113,4.24102232 45.6467226,4.13183436 C46.235042,4.06551278 46.7140561,4 47.1930702,4 C47.1930702,4.48285345 47.1279693,6.03979295 47.1279693,7.94775154 L47.1279693,11.4781624 C47.1279693,12.5530573 47.3899804,12.772242 48,12.88143 L48,12.9695891 C47.9782997,13.3869298 47.4767816,14 47.0194678,14 C46.1040364,14 45.6025183,13.3869298 45.4940168,12.4430605 C44.8614931,13.1232611 44.142972,13.4961178 43.6848544,13.7153025 C43.2492409,13.890812 42.7911234,14 42.290409,14 C40.0890338,14 39.0868012,12.5312197 39.0868012,10.3822388 L39.0868012,6.69734714 Z" id="Fill-43" fill="#FFBE00"></path>
                <path d="M54.7291605,5.2408 C53.5232869,5.2408 52.3405518,6.3144 52.147434,8.31904 C53.884604,8.36656 56.0560664,8.3428 56.4903589,8.31904 C56.804509,8.29528 56.9976268,8.10432 56.9976268,7.81832 C57.0216553,6.36192 56.2732127,5.2408 54.753189,5.2408 L54.7291605,5.2408 Z M58.4695936,12.85192 C58.4695936,13.592 57.9623257,14.25992 57.5520617,14.47464 C57.1667161,14.68936 56.1530703,15 55.1874815,15 C51.8332839,15 50,13.02 50,9.67864 C50,6.67256 51.8332839,4 55.0192821,4 C57.7700979,4 58.951943,6.0284 59,7.96088 C59,8.19936 58.9759715,8.51 58.9279146,8.70096 C58.8558291,9.10664 57.6971225,9.39264 56.8765945,9.53608 C56.2251557,9.60736 53.8125185,9.65576 52.0753486,9.5836 C52.0984871,12.0168 53.5953723,13.40104 55.7187778,13.40104 C56.804509,13.40104 57.9872441,13.04288 58.4206467,12.80528 L58.4695936,12.85192 Z" id="Fill-45" fill="#FFBE00"></path>
            </g>
        </g>
    </g>
</svg>