<?xml version="1.0" encoding="utf-8"?>
<!-- Generator: Adobe Illustrator 24.3.0, SVG Export Plug-In . SVG Version: 6.00 Build 0)  -->
<svg width="50px" height="35px" version="1.1" id="Capa_1" xmlns="http://www.w3.org/2000/svg" xmlns:xlink="http://www.w3.org/1999/xlink" x="0px" y="0px"
	 viewBox="0 0 97.4 69" style="enable-background:new 0 0 97.4 69;" xml:space="preserve">
<style type="text/css">
	.st0{clip-path:url(#SVGID_2_);}
	.st1{clip-path:url(#SVGID_4_);fill:#FFFFFF;}
</style>
<desc>Created with Sketch.</desc>
<g id="Objeto_inteligente_vectorial_1_">
	<g>
		<defs>
			<rect id="SVGID_1_" x="1.5" y="1" width="94.3" height="68"/>
		</defs>
		<clipPath id="SVGID_2_">
			<use xlink:href="#SVGID_1_"  style="overflow:visible;"/>
		</clipPath>
		<g class="st0">
			<defs>
				<rect id="SVGID_3_" x="1.5" y="1" width="94.3" height="68"/>
			</defs>
			<clipPath id="SVGID_4_">
				<use xlink:href="#SVGID_3_"  style="overflow:visible;"/>
			</clipPath>
			<path class="st1" d="M3.6,12.1c1-1.1,2.2-2,3.3-2h1.5c0.1,0,0.1,0.1,0.1,0.1v6.2c0,0.1,0.1,0.1,0.1,0.1h9.6
				c0.1,0,0.1,0.1,0.1,0.1v2.8c0,1.5-1.3,3.4-4.3,3.4H8.7c-0.1,0-0.1,0.1-0.1,0.1v11c0,3.7,1.6,5.2,4.5,5.2c2.3,0,4-0.3,5.1-1
				c0,0,0,0,0.1,0h0.1c0.1,0,0.1,0.1,0.1,0.1v2.4c0,2.9-2.1,4.7-6.3,4.7C5,45.4,1.5,41.5,1.5,34.8V17.7C1.5,14.9,2,13.9,3.6,12.1
				 M32.1,45.4c3,0,4.2-1.2,4.2-4.3v-1.4c0-0.1-0.1-0.1-0.1-0.1H35c-3.1,0-4.3-0.9-4.3-3.8V22.5c0-3.6-1.9-5.3-5.1-5.3h-1.9
				c-0.1,0-0.1,0.1-0.1,0.1v19.2C23.6,42.3,26.6,45.4,32.1,45.4 M27.1,14.6c2.3,0,4.2-1.9,4.2-4.2c0-2.3-1.9-4.1-4.2-4.1
				c-2.3,0-4.1,1.8-4.1,4.1C23,12.7,24.8,14.6,27.1,14.6 M61.2,31.3c1.9,0,3.7,1.5,3.7,3.2v4.6c0,5.2-3.5,7.7-10.7,7.7
				c-7.8,0-15.8-5.2-15.8-15c0-9.3,7.1-15.7,17.3-15.7c6,0,8.8,3.2,8.8,6.2v2.4c0,0.1-0.1,0.1-0.1,0.1h-0.8c0,0-0.1,0-0.1,0
				l-0.1-0.1c-1.8-1.4-5-2.3-8.4-2.3c-5.3,0-9.2,3.6-9.2,8.7c0,7.9,5,9.5,9.1,9.5c2.9,0,3.1-1,3.1-2.2V36c0-2.2-0.4-4-0.4-4.1
				l-0.1-0.5c0-0.1,0-0.2,0.1-0.2H61.2 M69.4,9.6c0-0.8,0.4-2.1,1-3C71.8,4.2,76.7,1,82,1c5.3,0,9.8,2.5,12,5.4
				c0.6,0.9,1.1,2.4,1.1,3.3v3H95c-2.8-3.3-6.7-6.1-12.4-6.1c-6.2,0-10.8,2.8-13.1,6h-0.1V9.6z M68,31.4c0,7.6,5,14.5,13.6,14.5
				c9.3,0,14.2-6.9,14.2-15.5c0-7.6-4.9-14.5-13.6-14.5C72.9,15.8,68,22.7,68,31.4 M88.4,31.4c0,4.7-2,8.1-6.2,8.1
				c-4.7,0-6.8-3.4-6.8-9.1c0-4.7,2.1-8.2,6.2-8.2C86.2,22.2,88.4,25.6,88.4,31.4 M86.5,51.1v3.6c0,1.4-0.6,3.5-1.4,5
				c-2.3,4.1-9.8,9.3-17.9,9.3c-8,0-14.5-4.1-17.8-9c-1-1.4-1.7-4-1.7-5.5v-3.5c0-0.1,0.1-0.1,0.1-0.1h0c0,0,0.1,0,0.1,0.1
				c4.2,5.5,10.6,10.1,19.2,10.1c9.4,0,15.6-4.6,19.1-10c0,0,0.1-0.1,0.1-0.1C86.4,51,86.5,51.1,86.5,51.1"/>
		</g>
	</g>
</g>
</svg>
