<svg xmlns="http://www.w3.org/2000/svg" viewBox="0 0 181.63 211.35"><defs><style>.cls-1{fill:#fff;}</style></defs><g id="Capa_2" data-name="Capa 2"><g id="Capa_1-2" data-name="Capa 1"><path class="cls-1" d="M7.37,31.49l1.12-7.65a16.35,16.35,0,0,1,4.22-1.35c.6-.08.79.31.67,1l-1,7.36,5.32-.68,1.06-7.65A13.11,13.11,0,0,1,23,21.18c.6-.08.68.52.63,1.21l-.91,7.15,3.13-.4c.79-.11,1.38.23,1.2,1.47a25.81,25.81,0,0,1-.85,4.5l-4.26.54-1,7.44,3.8-.49c.79-.1,1.24.18,1.24,1.27A24.36,24.36,0,0,1,25,48.58l-5.12.65-1.16,9.42A10.74,10.74,0,0,1,14.87,60c-.8.1-.93-.42-.86-1l1.25-9.22-5.39.69-1.31,9.3c-.1.82-.41,1.06-1,1.14a16.12,16.12,0,0,1-4-.77l1.42-9-3.67.4c-1.13.14-1.37-.1-1.25-1.33a20.87,20.87,0,0,1,.83-4.57L5.59,45,6.66,37.6l-3.92.5c-1.13.15-1.49,0-1.39-1.31a19.27,19.27,0,0,1,1-4.66ZM11.66,37l-1,7.44,5.19-.67,1.08-7.44Z"/><path class="cls-1" d="M66.46,14.88c.91-.8,6.12-1.87,7.71-2.07.74-.1,1,.27,1.28,2.07,1.59,12.37,3,26.93,5.1,39.32a48.57,48.57,0,0,1-7.24,1.6c-.86.11-1.56-.07-1.67-1.41C70.82,44.21,70,34.51,69,23.88c-1.72,6.65-5.88,18-10.14,32.34A20.43,20.43,0,0,1,53.23,58C51.88,53.2,46.53,36.23,44,27c-.77,8.83-2.42,23.92-3.31,31.81-.15,1-.52,1.22-1.65,1.36-2.13.27-5.33.61-6.32.27C33.81,53.14,36.48,36,39,20l-.17-1.33a32.68,32.68,0,0,1,7.95-2.37c.86-.11,1.28.52,2.05,2.85,2.9,8.9,5.3,16,7.87,24,3.29-9.14,7.38-21,9.76-27.28Z"/><path class="cls-1" d="M100.61,21.2c7.92-1,12.09,3.59,13,10.38,1.39,10.85-4.4,20-15,21.4-7.45,1-11.79-2.28-12.8-10.2-1.35-10.51,3.78-20.16,14.82-21.57Zm-.38,5.46c-4.4.56-6.32,8.25-5.36,15.77.38,3,1.63,5.33,4.16,5,4.26-.54,6.44-7.79,5.39-16-.31-2.4-1.47-5.09-4.13-4.75Z"/><path class="cls-1" d="M126.93,49.35c-4.25.55-7.4-2.91-8.24-9.43-1.37-10.78,4.08-21.55,15.39-23a10.15,10.15,0,0,1,5.08.57c.21-3.14.4-12.77.11-15.57A62.49,62.49,0,0,1,146.8,0c.73-.1,1,.61,1,2.31-.32,10.19-.73,29.72-.72,34a69.75,69.75,0,0,0,.77,9.17c-2,1.21-6.31,2-7.44,2.1-.47.06-1.13-3-1.34-5.71,0-.87-.07-2.15-.1-2.35-2.63,5.88-6.88,9.13-11.94,9.77Zm3.52-7.41c2.93-.38,8.15-6.59,8.58-16.45,0-.55.08-1.57.13-2.18a5.24,5.24,0,0,0-4-.85c-6.72.86-8.69,9.29-7.95,15.08.4,3.13,1.67,4.59,3.13,4.4Z"/><path class="cls-1" d="M168.36,12.54c7.92-1,12.09,3.59,13,10.38,1.38,10.85-4.41,20-15.06,21.4-7.45,1-11.79-2.28-12.8-10.2-1.34-10.51,3.78-20.16,14.83-21.57ZM168,18c-4.39.56-6.32,8.25-5.36,15.77.39,3,1.63,5.33,4.16,5,4.26-.54,6.45-7.79,5.39-16-.3-2.4-1.46-5.09-4.12-4.75Z"/><path class="cls-1" d="M63.63,83.39c-4,1.61-7.94,4-12.59,4.32-2.09.15-2.5,2.06-2.36,3.93.28,3.92.67,7.84.86,11.77.23,4.81.11,9.24-6.3,10.41-2.61.48-4.41,3.61-7.86,2.76-2.57-.64-4.18-1.58-3.67-4.43,1.82-10.22.35-20.45.18-30.68-.12-6.65,1.75-7.65,8.31-6.23,12,2.58,23.1-.37,32.89-7.37,3.19-2.29,6.14-4.12,10-4.45,1.52-.12,3.26-.84,4.29.65,1.14,1.66.78,3.6-.1,5.37a8.13,8.13,0,0,1-1.15,1.69c-10.6,12.36-16.22,27.23-21.36,42.35C60.6,125.78,56.23,138,52.2,150.37c-1.12,3.44-2.48,7-.4,10.89.9,1.69.2,4.38-.14,6.56-.38,2.46-1.19,4.62-.06,7.34,1,2.31-.4,4.53-3.47,5.12-7.56,1.45-10.4-.8-11.17-8.5-1.16-11.58,3.73-21.84,7-32.35C49.76,121.2,55.64,103,63.77,85.61A1.61,1.61,0,0,0,63.63,83.39Z"/><path class="cls-1" d="M128.59,122.68c.73-18.82,7-35.68,16.35-51.49,3.83-6.47,10.23-10,17.05-12.57,3.56-1.37,6,.77,7.6,3.56,1.51,2.64-.58,4.76-2.57,5.23C155.92,70,153.05,80,148.86,88.2c-4.4,8.64-6.77,18.19-8.27,27.88-.67,4.33,0,8.57.51,12.75.31,2.84,1.49,6.85,6.43,4.71,2-.87,4.06,1,6.46-.08,5.5-2.35,6.9-7.58,8.91-12.12,3.16-7.15,5.47-14.67,8.17-22,.59-1.61,1.34-3.14.94-4.95-2-9.18,1.89-17.78,2.78-26.68.16-1.63.44-4.36,2.66-4.37,2,0,1.75,2.62,2.36,4.12,1.73,4.25.67,8.79,1.21,13.18,2.34,19-2.18,36.75-11.47,53.19-7.78,13.77-26.76,16.06-36.83,5.15C128.25,134.11,129.06,128.19,128.59,122.68Z"/><path class="cls-1" d="M76.69,126.67a102.69,102.69,0,0,1,8.92-35.36c2.24-5,4.28-10,6.91-14.87,4.25-7.78,11.22-11.72,19.07-14.65a6.3,6.3,0,0,1,6.33.66c3.89,2.81,3.9,7.17-.6,8-11.19,2.07-14.57,11.32-18.72,19.46-4.4,8.63-7.12,18-9.13,27.62-.93,4.46-.26,8.86-.6,13.28-.2,2.65,1.31,5.73,4.63,5.84,4.53.15,9.38,1.14,12.7-3.77,6.27-9.25,9-20,13.34-30.07,2.09-4.88-.9-9.72.55-14.56,1.81-6,3.24-12.12,5-18.15.29-1,.69-2.58,2.27-2.36s1.31,1.76,1.64,2.85c1.43,4.7.18,9.5.55,14.23,1.45,18.41-2,35.69-11.79,51.47-6.17,9.9-15.94,14.06-26.18,11.38S76.41,138.62,76.69,126.67Z"/><path class="cls-1" d="M110.12,186.51c6,.63,10.17-1.5,14.72-1.94a61.26,61.26,0,0,1,17.75.89,6.51,6.51,0,0,0,4-.07c6.44-2.93,12,.57,17.71,2.46,1.3.43,3.13,1.37,2.68,3.26-.35,1.48-2.1,1.77-3.39,1.8-10.57.28-20.89,3.08-31.5,2.94s-20.62,2.86-31,3.7c-16.33,1.32-31.53,7.65-47.58,10.06-2.57.38-4.87,3.06-7.74.92-1.68-1.26-3.38-2.67-3.19-4.94s1.79-3.43,3.91-4.24c12.81-4.9,26.18-7.74,39.38-11.23C94.35,187.88,103,188,110.12,186.51Z"/><path class="cls-1" d="M136.83,169c-18.69,1.72-36.67,3.62-54.14,8.86a43,43,0,0,1-8.54,1.41c-3.27.28-4.4-2.34-5.2-4.77s.49-4,2.74-4.78c12.76-4.39,25.67-8.14,39.18-9.5,5.95-.59,11.92-1.24,17.82-2.22,2.28-.39,4.71-.74,6.55.14,6,2.87,12.9-1.54,18.65,2.55,1,.69,2.14,1.1,3.11,1.78,1.12.79,2.4,1.75,1.91,3.31s-2.15,1.82-3.44,1.71C148.92,166.89,142.84,170.94,136.83,169Z"/></g></g></svg>