<?xml version="1.0" encoding="utf-8"?>
<!-- Generator: Adobe Illustrator 22.0.1, SVG Export Plug-In . SVG Version: 6.00 Build 0)  -->
<svg version="1.1" id="Capa_1" xmlns="http://www.w3.org/2000/svg" xmlns:xlink="http://www.w3.org/1999/xlink" x="0px" y="0px"
	 viewBox="0 0 216.8 78.6" style="enable-background:new 0 0 216.8 78.6;" xml:space="preserve">
<style type="text/css">
	.st0{fill:#FFFFFF;}
</style>
<path class="st0" d="M35.3,20.3c-2.8,0-5.4,0.3-6.4,0.4c0.1,1.7,0.1,3.2,0.1,5v17.5c0,0.6,0.3,0.7,0.9,0.7c1.1,0,3.9-0.1,4.5-0.3
	c0-0.7-0.1-1.8-0.1-4.4V23.6c0.4-0.1,0.9-0.1,1.2-0.1c2.2,0,4.1,1.2,4.1,4.3c0,3.6-2.1,4.5-3.9,4.5c-0.3,0-0.7,0-0.9,0
	c0,1.3,0.7,2.5,1.4,2.8c0.4,0.2,1.4,0.3,1.9,0.3c2.2,0,7.1-2,7.1-7.5C45.2,22.2,41.2,20.3,35.3,20.3z"/>
<path class="st0" d="M53.8,33.9c-2.9,0.6-7.1,1.7-7.1,5.4c0,3,2.4,4.8,4.8,4.8c1.7,0,3.3-1,4.2-2c0.6,1.3,1.7,2,3.2,2
	c2.4,0,3.5-1.3,3.5-3.6v-0.1c-0.1,0-0.4,0-0.6,0c-0.9,0-1.3-0.5-1.3-0.9c0-2.5,0.1-4.9,0.1-6.5c0-4.3-3.1-6.3-6.3-6.3
	c-2.5,0-5.2,1.2-7,2.4c0,1.2,0.4,2.8,2.3,2.3c0.7-0.3,2-0.9,3.3-0.9c1.7,0,2.8,1.1,2.8,2.5v0.4C55.3,33.7,54.4,33.8,53.8,33.9z
	 M55.6,38.7c0,0.7-0.1,1-0.3,1.3c-0.5,0.4-0.9,0.6-1.6,0.6c-1.2,0-2.1-0.7-2.1-1.9l0,0c0-0.8,0.7-2.1,4-2.4V38.7z"/>
<path class="st0" d="M69.9,38.8V20.9c0-2.2-0.1-2.4-0.8-2.4c-0.9,0-3.8,0.4-4.5,0.8c0.1,0.7,0.1,1.6,0.1,3.8v20.4
	c0,0.4,0.1,0.5,0.5,0.5c0.6,0,3.9-0.1,4.8-0.3C70,42.6,69.9,40.6,69.9,38.8z"/>
<path class="st0" d="M81.6,42.2c0.6,1.3,1.7,2,3.2,2c2.4,0,3.5-1.3,3.5-3.6v-0.1c-0.1,0-0.4,0-0.6,0c-0.9,0-1.3-0.5-1.3-0.9
	c0-2.5,0.1-4.9,0.1-6.5c0-4.3-3.1-6.3-6.3-6.3c-2.5,0-5.2,1.2-7,2.4c0,1.2,0.4,2.8,2.3,2.3c0.7-0.3,2-0.9,3.3-0.9
	c1.7,0,2.8,1.1,2.8,2.5v0.4c-0.4,0.1-1.2,0.2-1.9,0.3c-2.9,0.6-7.1,1.7-7.1,5.4c0,3,2.4,4.8,4.8,4.8C79.1,44.2,80.7,43.2,81.6,42.2z
	 M77.5,38.6c0-0.8,0.7-2.1,4-2.4v2.5c0,0.7-0.1,1-0.3,1.3c-0.5,0.4-0.9,0.6-1.6,0.6C78.4,40.6,77.5,39.8,77.5,38.6L77.5,38.6z"/>
<path class="st0" d="M90.7,42.2c0,0.6,0.3,0.8,1.1,1.1c1.3,0.6,3.1,0.9,5.1,0.9c5.5,0,10.1-3.6,10.1-9.5c0-4-2.2-7.8-7.2-7.8
	c-1.1,0-3.1,0.8-3.9,1.2V21c0-2.3-0.2-2.5-0.8-2.5c-0.9,0-3.6,0.4-4.5,0.8c0.1,0.8,0.1,1.9,0.1,3.9C90.7,23.2,90.7,42.2,90.7,42.2z
	 M95.8,30.8c0.3-0.1,1.2-0.3,1.6-0.3c2.8,0,4.2,2.2,4.2,4.9c0,4.3-2.6,5.7-4.4,5.7c-0.6,0-1-0.1-1.4-0.2
	C95.8,40.9,95.8,30.8,95.8,30.8z"/>
<path class="st0" d="M109.8,30.9v6.3c0,2.2,0,4.5-0.1,6.7c1.6,0,2.9,0,4.3-0.2c0.9-0.1,0.9-0.4,0.9-1c0-2.5,0-5.1,0-7.5
	c0-0.8,0.1-1.2,0.3-1.7c0.5-1.5,1.5-1.7,2-1.7c0.7,0,1.1,0.1,1.9,0.4c0.6-0.1,1.4-1.1,1.6-2c0.4-0.8,0.5-2,0.3-2.5
	c-0.4-0.3-1.1-0.6-1.8-0.6c-2.1,0-3.6,1.4-4.7,3.9c0-2.2-0.7-3.9-2.6-3.9c-1.2,0-2.8,1.2-3.1,2.2v0.1
	C109.6,29.6,109.8,30.2,109.8,30.9z"/>
<path class="st0" d="M137.3,40.5c-0.9,0-1.3-0.5-1.3-0.9c0-2.5,0.1-4.9,0.1-6.5c0-4.3-3.1-6.3-6.3-6.3c-2.5,0-5.2,1.2-7,2.4
	c0,1.2,0.4,2.8,2.3,2.3c0.7-0.3,2-0.9,3.3-0.9c1.7,0,2.8,1.1,2.8,2.5v0.4c-0.4,0.1-1.2,0.2-1.9,0.3c-2.9,0.6-7.1,1.7-7.1,5.4
	c0,3,2.4,4.8,4.8,4.8c1.7,0,3.3-1,4.2-2c0.6,1.3,1.7,2,3.2,2c2.4,0,3.5-1.3,3.5-3.6v-0.1C137.7,40.5,137.5,40.5,137.3,40.5z
	 M131.1,38.7c0,0.7-0.1,1-0.3,1.3c-0.5,0.4-0.9,0.6-1.6,0.6c-1.2,0-2.1-0.7-2.1-1.9l0,0c0-0.8,0.7-2.1,4-2.4V38.7z"/>
<path class="st0" d="M28.2,51.2c2,0,3.6,0.5,4.7,0.9c1.4,0.2,2.3-1.3,2.2-2.6c-0.6-0.7-3.4-1.9-6.9-1.9c-7.4,0-13.3,4.7-13.3,12.4
	c-0.1,7.2,4.6,12,13.1,12c2.4,0,4.4-0.7,5.3-1.3c0.7-0.7,1.2-1.8,1.3-3.3l-0.1-0.1c-0.9,0.3-2.8,0.9-5.4,0.9c-5.7,0-8.7-3.8-8.7-8.5
	C20.5,53.9,23.9,51.2,28.2,51.2z"/>
<path class="st0" d="M42.5,48.6c0-2.2-0.1-2.4-0.8-2.4c-0.9,0-3.8,0.4-4.5,0.8c0.1,0.7,0.1,1.6,0.1,3.8v20.4c0,0.4,0.1,0.5,0.5,0.5
	c0.6,0,3.9-0.1,4.8-0.3c-0.1-1.1-0.1-3.1-0.1-4.9V48.6z"/>
<path class="st0" d="M60.4,68.2c-0.9,0-1.3-0.5-1.3-0.9c0-2.5,0.1-4.9,0.1-6.5c0-4.3-3.1-6.3-6.3-6.3c-2.5,0-5.2,1.2-7,2.4
	c0,1.2,0.4,2.8,2.3,2.3c0.7-0.3,2-0.9,3.3-0.9c1.7,0,2.8,1.1,2.8,2.5v0.4c-0.4,0.1-1.2,0.2-1.9,0.3c-2.9,0.6-7.1,1.7-7.1,5.4
	c0,3,2.4,4.8,4.8,4.8c1.7,0,3.3-1,4.2-2c0.6,1.3,1.7,2,3.2,2c2.4,0,3.5-1.3,3.5-3.6V68C60.8,68.2,60.6,68.2,60.4,68.2z M54.2,66.4
	c0,0.7-0.1,1-0.3,1.3c-0.5,0.4-0.9,0.6-1.6,0.6c-1.2,0-2.1-0.7-2.1-1.9l0,0c0-0.8,0.7-2.1,4-2.4C54.2,64,54.2,66.4,54.2,66.4z"/>
<path class="st0" d="M76.7,55.2c-1-0.4-2-0.7-3.2-0.7c-0.9,2.9-2.2,6.8-3.8,11.4c-1.3-4.4-2.4-7.8-3.3-10.5
	c-0.2-0.5-0.5-0.9-1.1-0.9l0,0c-1.1,0-3.4,0.4-4.4,1c0.7,1.5,1.3,3.1,1.8,4.5c1.4,3.7,2.9,7.5,4.3,11.8c0.8,0,2.3-0.1,3.3-0.4
	c0.6-0.1,1-0.3,1.2-0.9c1.2-3,3.6-8.8,5.2-12.8C77.3,56.5,77.6,55.6,76.7,55.2z"/>
<path class="st0" d="M86,54.5c-5.1,0-8.1,4.4-8.1,8.8c0,5.6,3,8.5,8.6,8.5c1.2,0,2.8-0.4,3.3-0.6c0.7-0.3,2.2-2,2.2-3.9l0,0
	c-0.6,0.3-2.3,0.8-4.2,0.8c-2.2,0-4.5-1-4.8-4c1.7,0.1,5.6,0,6.5-0.2c1.6-0.4,2.9-1,3-1.5c0.1-0.3,0.1-0.7,0.1-1.2
	C92.7,58.1,90.9,54.5,86,54.5z M87.6,61.3c-1,0.1-3.6,0.1-4.5,0c0-2.6,1.4-3.8,2.6-3.8l0,0c1.7,0,2.3,1.4,2.3,3
	C87.9,60.9,87.8,61.3,87.6,61.3z"/>
<path class="st0" d="M149.9,76.7c1.1,0.2,2.2,0.2,3.4-0.2c0.8-0.2,2.1-1.1,2.1-1.1l15.5-9.6c1.2-0.8,2.1-1.9,2.7-3L194.9,23
	c4-6.8,0.6-15.9-7.7-20.3c-4.3-2.2-9.2-2.8-13.4-1.6c-3.6,1.1-6.4,3.4-8.2,6.5l-6.7,12.7c0,0,0,0.1-0.1,0.1c0,0,0,0,0,0.1l0,0
	l-14.3,26.9c-0.7,1.3-1,2.6-1,4l0.5,18.4c0,0,0.1,1.5,0.3,2.1c0.6,1.8,1.8,3.2,3.2,4.1 M162.5,22.4c1.7-3,4.9-4.7,8.5-4.9L158,42.1
	c-2.1-0.2-4.1,0-6.1,0.6L162.5,22.4z M173.4,17.6c1.7,0.2,3.4,0.7,5.1,1.6c1.4,0.8,2.6,1.7,3.6,2.7l-13.2,24.8c-1.1-1-2.3-2-3.7-2.6
	c-1.6-0.9-3.3-1.4-5-1.8L173.4,17.6z M153.5,72.3c-0.2,0.1-0.8,0.5-1.3,0.7c-1.7,0.5-3.4-0.5-3.9-2.1c-0.1-0.3-0.1-1-0.1-1.2
	l-0.2-8.2c2.2-0.8,5-0.6,7.5,0.7c2.5,1.4,4.2,3.6,4.8,5.9L153.5,72.3z M169.5,62.3c-0.2,0.2-0.4,0.4-0.6,0.5l-6.7,4.2
	c-0.9-2.6-2.8-5.1-5.7-6.6c-2.7-1.5-5.8-1.9-8.5-1.1l-0.2-7.8c0-0.5,0.1-1.1,0.4-1.6c3.1-4.1,9.6-5.1,15-2.1
	C169.1,50.9,171.8,57.3,169.5,62.3z M184.5,34.3L184.5,34.3L184.5,34.3l-10.6,20.2c-0.2-0.5-0.3-1-0.5-1.5c-0.7-1.8-1.8-3.3-3-4.8
	l13.1-24.5C185.7,26.9,186.3,30.9,184.5,34.3z M191.3,21.4l-2.3,4.4c-0.1-0.5-0.2-0.9-0.4-1.4c-1.6-3.7-4.5-6.9-8.3-9
	c-4.2-2.2-9.1-2.8-13.4-1.6l2.2-4.3c1.2-2.1,3.1-3.8,5.7-4.5c3.2-1,6.9-0.5,10.3,1.3c3.1,1.7,5.4,4.2,6.5,7.1
	C192.8,16.2,192.6,19,191.3,21.4z"/>
<path class="st0" d="M28.4,30.1c-1.3-0.4-2.8-1.2-3.7-2c0.3-0.4,0.4-0.6,0.6-1c0.9-1.7,0.7-3.3-0.4-4.5c-0.1-0.1-0.2-0.2-0.3-0.2
	c-0.1,0-0.2,0-0.3,0.1c-1.4,1.3-2,2.7-1.6,4c0.2,0.6,0.4,1.2,0.9,1.6c-1.2,1.3-2.8,2.2-3.5,2.1c-0.3,0-0.4-0.2-0.6-0.4
	c-0.4-0.6-0.4-1.9-0.1-2.8c0.3-0.4,0.4-1,0.4-1.4l1.5-4.7c0.1-0.2,0-0.4-0.1-0.4c-0.1-0.1-0.3-0.1-0.4-0.1c-0.9,0.4-1.8,0.8-2.7,1.3
	c-0.3-0.1-0.6-0.2-0.9-0.2c-0.6,0-1.1,0.4-1.5,0.6c-0.2,0.1-0.3,0.2-0.4,0.3c-1.8,1.1-4.2,0.7-5.4-0.8l0,0c1.1-1.9,2.1-3.9,3.1-6.1
	c0.9-1.9,3-10.8,1.3-12.7c-0.1-0.2-0.4-0.2-0.5-0.1c-2.5,1.3-5.8,9.7-6,12.5c-0.3,2.8,0.1,5,1.1,6.4c-1.6,2.7-3.4,5.1-5.3,7.2
	c-0.4,0.4-0.9,0.4-1.2,0.4C2.1,29.2,1.8,29,1.8,29L1,29.3c0.2,0.4,0.6,0.7,1.2,0.8c0.7,0.1,1.4-0.1,2-0.6C6,27.3,7.8,25,9.4,22.3
	c1.5,1.6,4.3,2,6.3,0.7c0.2-0.1,0.3-0.2,0.4-0.3c0.4-0.3,0.7-0.4,1.1-0.5c-1.6,1.2-3,2.6-4.2,4.3c-0.7,1.1-1.2,2.6-0.2,3.5
	c0.4,0.4,1.1,0.4,1.9,0.4c1.3-0.2,2.7-0.9,3.6-2c0,0.6,0.2,1.2,0.4,1.7c0.3,0.4,0.7,0.7,1.2,0.7c1,0.1,2.8-0.9,4.2-2.4
	c1.2,1.1,2.7,1.8,4.1,2.2 M9.4,21.2c-0.7-1.3-1-3.1-0.7-5.6S11.8,5.7,14.1,4c0.8,2-0.7,9.5-1.7,11.5C11.5,17.6,10.5,19.4,9.4,21.2z
	 M20.4,21.6l-0.6,2c0-0.1-0.1-0.2-0.1-0.3c-0.2-0.4-0.4-0.7-0.6-1C19.4,22.2,19.9,21.9,20.4,21.6z M19.1,25.5l-0.4,1.3
	c0,0.1-0.1,0.1-0.1,0.2c-0.8,1.5-2.4,2.6-3.9,2.8c-0.6,0.1-1,0-1.2-0.2c-0.6-0.5-0.1-1.8,0.4-2.4c1.2-1.7,2.8-3.2,4.4-4.3
	c0.3,0.3,0.5,0.5,0.6,0.9C19.1,24.3,19.2,24.9,19.1,25.5z M24.3,27.5c-0.3-0.4-0.4-0.8-0.5-1.2c-0.3-1,0.1-2,1.1-2.9
	c0.8,1.2,0.4,2.4,0,3.3C24.5,27,24.3,27.2,24.3,27.5z"/>
</svg>
