<?xml version="1.0" encoding="utf-8"?>
<!-- Generator: Adobe Illustrator 24.1.3, SVG Export Plug-In . SVG Version: 6.00 Build 0)  -->
<svg version="1.1" id="Capa_1" xmlns="http://www.w3.org/2000/svg" xmlns:xlink="http://www.w3.org/1999/xlink" x="0px" y="0px"
	 viewBox="0 0 192.7 76.3" style="enable-background:new 0 0 192.7 76.3;" xml:space="preserve">
<style type="text/css">
	.st0{fill:#FFFFFF;}
	.st1{fill:#FFBE00;}
</style>
<path class="st0" d="M9.1,5C5.5,5,2.1,5.4,0.9,5.6C1,7.7,1,9.7,1,12v22.5c0,0.8,0.4,0.9,1.2,0.9c1.4,0,5-0.1,5.8-0.4
	c0-0.9-0.1-2.3-0.1-5.6v-20c0.5-0.1,1.2-0.1,1.5-0.1c2.8,0,5.3,1.5,5.3,5.5c0,4.6-2.7,5.8-5,5.8c-0.4,0-0.9,0-1.2,0
	c0,1.7,0.9,3.2,1.8,3.6c0.5,0.3,1.8,0.4,2.4,0.4c2.8,0,9.1-2.6,9.1-9.6C21.8,7.5,16.6,5,9.1,5z"/>
<path class="st0" d="M32.8,22.5c-3.7,0.8-9.1,2.2-9.1,6.9c0,3.9,3.1,6.2,6.2,6.2c2.2,0,4.2-1.3,5.4-2.6c0.8,1.7,2.2,2.6,4.1,2.6
	c3.1,0,4.5-1.7,4.5-4.6v-0.1c-0.1,0-0.5,0-0.8,0c-1.2,0-1.7-0.6-1.7-1.2c0-3.2,0.1-6.3,0.1-8.3c0-5.5-4-8.1-8.1-8.1
	c-3.2,0-6.7,1.5-9,3.1c0,1.5,0.5,3.6,3,3c0.9-0.4,2.6-1.2,4.2-1.2c2.2,0,3.6,1.4,3.6,3.2v0.5C34.7,22.3,33.6,22.4,32.8,22.5z
	 M35.1,28.7c0,0.9-0.1,1.3-0.4,1.7c-0.6,0.5-1.2,0.8-2.1,0.8c-1.5,0-2.7-0.9-2.7-2.4l0,0c0-1,0.9-2.7,5.1-3.1
	C35.1,25.6,35.1,28.7,35.1,28.7z"/>
<path class="st0" d="M53.5,64.4V5.8c0-2.8-0.1-3.1-1-3.1c-1.2,0-4.9,0.5-5.8,1c0.1,0.9,0.1,2.1,0.1,4.9v61.8c0,0.5,0.1,0.6,0.6,0.6
	c0.8,0,5-0.1,6.2-0.4C53.6,69.2,53.5,66.7,53.5,64.4z"/>
<path class="st0" d="M68.5,33.2c0.8,1.7,2.2,2.6,4.1,2.6c3.1,0,4.5-1.7,4.5-4.6V31c-0.1,0-0.5,0-0.8,0c-1.2,0-1.7-0.6-1.7-1.2
	c0-3.2,0.1-6.3,0.1-8.3c0-5.5-4-8.1-8.1-8.1c-3.2,0-6.7,1.5-9,3.1c0,1.5,0.5,3.6,3,3c0.9-0.4,2.6-1.2,4.2-1.2c2.2,0,3.6,1.4,3.6,3.2
	V22c-0.5,0.1-1.5,0.3-2.4,0.4c-3.7,0.8-9.1,2.2-9.1,6.9c0,3.9,3.1,6.2,6.2,6.2C65.3,35.7,67.4,34.5,68.5,33.2z M63.2,28.5
	c0-1,0.9-2.7,5.1-3.1v3.2c0,0.9-0.1,1.3-0.4,1.7c-0.6,0.5-1.2,0.8-2.1,0.8C64.4,31.1,63.2,30.1,63.2,28.5L63.2,28.5z"/>
<path class="st0" d="M80.2,33.2c0,0.8,0.4,1,1.4,1.4c1.7,0.8,4,1.2,6.5,1.2c7.1,0,13-4.6,13-12.2c0-5.1-2.8-10-9.2-10
	c-1.4,0-4,1-5,1.5V5.9c0-3-0.3-3.2-1-3.2c-1.2,0-4.6,0.5-5.8,1c0.1,1,0.1,2.4,0.1,5C80.2,8.8,80.2,33.2,80.2,33.2z M86.7,18.5
	c0.4-0.1,1.5-0.4,2.1-0.4c3.6,0,5.4,2.8,5.4,6.3c0,5.5-3.3,7.3-5.6,7.3c-0.8,0-1.3-0.1-1.8-0.3C86.7,31.5,86.7,18.5,86.7,18.5z"/>
<path class="st0" d="M104.7,18.7v8.1c0,2.8,0,5.8-0.1,8.6c2.1,0,3.7,0,5.5-0.3c1.2-0.1,1.2-0.5,1.2-1.3c0-3.2,0-6.5,0-9.6
	c0-1,0.1-1.5,0.4-2.2c0.6-1.9,1.9-2.2,2.6-2.2c0.9,0,1.4,0.1,2.4,0.5c0.8-0.1,1.8-1.4,2.1-2.6c0.5-1,0.6-2.6,0.4-3.2
	c-0.5-0.4-1.4-0.8-2.3-0.8c-2.7,0-4.6,1.8-6,5c0-2.8-0.9-5-3.3-5c-1.5,0-3.6,1.5-4,2.8v0.1C104.5,17,104.7,17.8,104.7,18.7z"/>
<path class="st0" d="M140,31c-1.2,0-1.7-0.6-1.7-1.2c0-3.2,0.1-6.3,0.1-8.3c0-5.5-4-8.1-8.1-8.1c-3.2,0-6.7,1.5-9,3.1
	c0,1.5,0.5,3.6,3,3c0.9-0.4,2.6-1.2,4.2-1.2c2.2,0,3.6,1.4,3.6,3.2V22c-0.5,0.1-1.5,0.3-2.4,0.4c-3.7,0.8-9.1,2.2-9.1,6.9
	c0,3.9,3.1,6.2,6.2,6.2c2.2,0,4.2-1.3,5.4-2.6c0.8,1.7,2.2,2.6,4.1,2.6c3.1,0,4.5-1.7,4.5-4.6v-0.1C140.5,31,140.3,31,140,31z
	 M132.1,28.7c0,0.9-0.1,1.3-0.4,1.7c-0.6,0.5-1.2,0.8-2.1,0.8c-1.5,0-2.7-0.9-2.7-2.4l0,0c0-1,0.9-2.7,5.1-3.1V28.7z"/>
<path class="st0" d="M34,44.7c2.6,0,4.6,0.6,6,1.2c1.8,0.3,3-1.7,2.8-3.3c-0.8-0.9-4.4-2.4-8.9-2.4c-9.5,0-17.1,6-17.1,15.9
	c-0.1,9.2,5.9,15.4,16.8,15.4c3.1,0,5.6-0.9,6.8-1.7c0.9-0.9,1.5-2.3,1.7-4.2l-0.1-0.1c-1.2,0.4-3.6,1.2-6.9,1.2
	c-7.3,0-11.2-4.9-11.2-10.9C24.1,48.2,28.5,44.7,34,44.7z"/>
<path class="st0" d="M76.6,66.5c-1.2,0-1.7-0.6-1.7-1.2c0-3.2,0.1-6.3,0.1-8.3c0-5.5-4-8.1-8.1-8.1c-3.2,0-6.7,1.5-9,3.1
	c0,1.5,0.5,3.6,3,3c0.9-0.4,2.6-1.2,4.2-1.2c2.2,0,3.6,1.4,3.6,3.2v0.5c-0.5,0.1-1.5,0.3-2.4,0.4c-3.7,0.8-9.1,2.2-9.1,6.9
	c0,3.9,3.1,6.2,6.2,6.2c2.2,0,4.2-1.3,5.4-2.6c0.8,1.7,2.2,2.6,4.1,2.6c3.1,0,4.5-1.7,4.5-4.6v-0.1C77.1,66.5,76.9,66.5,76.6,66.5z
	 M68.6,64.2c0,0.9-0.1,1.3-0.4,1.7c-0.6,0.5-1.2,0.8-2.1,0.8c-1.5,0-2.7-0.9-2.7-2.4l0,0c0-1,0.9-2.7,5.1-3.1
	C68.6,61.2,68.6,64.2,68.6,64.2z"/>
<path class="st0" d="M97.5,49.9C96.2,49.3,95,49,93.4,49c-1.2,3.7-2.8,8.7-4.9,14.6c-1.7-5.6-3.1-10-4.2-13.5
	C84,49.5,83.7,49,82.9,49l0,0c-1.4,0-4.4,0.5-5.6,1.3c0.9,1.9,1.7,4,2.3,5.8c1.8,4.8,3.7,9.6,5.5,15.2c1,0,3-0.1,4.2-0.5
	c0.8-0.1,1.3-0.4,1.5-1.2c1.5-3.9,4.6-11.3,6.7-16.4C98.3,51.5,98.7,50.4,97.5,49.9z"/>
<path class="st0" d="M109.5,49c-6.5,0-10.4,5.6-10.4,11.3c0,7.2,3.9,10.9,11,10.9c1.5,0,3.6-0.5,4.2-0.8c0.9-0.4,2.8-2.6,2.8-5l0,0
	c-0.8,0.4-3,1-5.4,1c-2.8,0-5.8-1.3-6.2-5.1c2.2,0.1,7.2,0,8.3-0.3c2.1-0.5,3.7-1.3,3.9-1.9c0.1-0.4,0.1-0.9,0.1-1.5
	C118.1,53.6,115.8,49,109.5,49z M111.5,57.7c-1.3,0.1-4.6,0.1-5.8,0c0-3.3,1.8-4.9,3.3-4.9l0,0c2.2,0,3,1.8,3,3.9
	C111.9,57.2,111.8,57.7,111.5,57.7z"/>
<path class="st1" d="M146,76.2c1.1,0.2,2.2,0.2,3.4-0.2c0.8-0.2,2.1-1.1,2.1-1.1l15.5-9.6c1.2-0.8,2.1-1.9,2.7-3L191,22.5
	c4-6.8,0.6-15.9-7.7-20.3c-4.3-2.2-9.2-2.8-13.4-1.6c-3.6,1.1-6.4,3.4-8.2,6.5L155,19.8c0,0,0,0.1-0.1,0.1c0,0,0,0,0,0.1l0,0
	l-14.3,26.9c-0.7,1.3-1,2.6-1,4l0.5,18.4c0,0,0.1,1.5,0.3,2.1c0.6,1.8,1.8,3.2,3.2,4.1 M158.6,21.9c1.7-3,4.9-4.7,8.5-4.9l-13,24.6
	c-2.1-0.2-4.1,0-6.1,0.6L158.6,21.9z M169.5,17.1c1.7,0.2,3.4,0.7,5.1,1.6c1.4,0.8,2.6,1.7,3.6,2.7L165,46.2c-1.1-1-2.3-2-3.7-2.6
	c-1.6-0.9-3.3-1.4-5-1.8L169.5,17.1z M149.6,71.8c-0.2,0.1-0.8,0.5-1.3,0.7c-1.7,0.5-3.4-0.5-3.9-2.1c-0.1-0.3-0.1-1-0.1-1.2
	l-0.2-8.2c2.2-0.8,5-0.6,7.5,0.7c2.5,1.4,4.2,3.6,4.8,5.9L149.6,71.8z M165.6,61.8c-0.2,0.2-0.4,0.4-0.6,0.5l-6.7,4.2
	c-0.9-2.6-2.8-5.1-5.7-6.6c-2.7-1.5-5.8-1.9-8.5-1.1l-0.2-7.8c0-0.5,0.1-1.1,0.4-1.6c3.1-4.1,9.6-5.1,15-2.1
	C165.2,50.4,167.9,56.8,165.6,61.8z M180.6,33.8L180.6,33.8L180.6,33.8L170,54c-0.2-0.5-0.3-1-0.5-1.5c-0.7-1.8-1.8-3.3-3-4.8
	l13.1-24.5C181.8,26.4,182.4,30.4,180.6,33.8z M187.4,20.9l-2.3,4.4c-0.1-0.5-0.2-0.9-0.4-1.4c-1.6-3.7-4.5-6.9-8.3-9
	c-4.2-2.2-9.1-2.8-13.4-1.6l2.2-4.3c1.2-2.1,3.1-3.8,5.7-4.5c3.2-1,6.9-0.5,10.3,1.3c3.1,1.7,5.4,4.2,6.5,7.1
	C188.9,15.7,188.7,18.5,187.4,20.9z"/>
</svg>
