<?xml version="1.0" encoding="utf-8"?>
<!-- Generator: Adobe Illustrator 24.3.0, SVG Export Plug-In . SVG Version: 6.00 Build 0)  -->
<svg version="1.1" id="Capa_1" xmlns="http://www.w3.org/2000/svg" xmlns:xlink="http://www.w3.org/1999/xlink" x="0px" y="0px"
	 viewBox="0 0 76.3 72.5" style="enable-background:new 0 0 76.3 72.5;" xml:space="preserve">
<style type="text/css">
	.st0{display:none;}
	
		.st1{display:inline;fill:none;stroke:#FFFFFF;stroke-width:1.6525;stroke-linecap:round;stroke-linejoin:round;stroke-miterlimit:10;}
	
		.st2{display:inline;fill:none;stroke:#00C8FF;stroke-width:1.6525;stroke-linecap:round;stroke-linejoin:round;stroke-miterlimit:10;}
	
		.st3{display:inline;fill:none;stroke:#FFBE00;stroke-width:1.6525;stroke-linecap:round;stroke-linejoin:round;stroke-miterlimit:10;}
	.st4{fill:none;stroke:#FFFFFF;stroke-width:1.6747;stroke-linecap:round;stroke-linejoin:round;stroke-miterlimit:10;}
	.st5{fill:none;stroke:#00C8FF;stroke-width:1.6747;stroke-linecap:round;stroke-linejoin:round;stroke-miterlimit:10;}
	.st6{fill:none;stroke:#FFBE00;stroke-width:1.6747;stroke-linecap:round;stroke-linejoin:round;stroke-miterlimit:10;}
</style>
<desc>Created with Sketch.</desc>
<g>
	<g class="st0">
		<path class="st1" d="M63,15.9c1.4,2.5,2.2,5.3,2.2,8.4c0,4.6-1.4,9.2-4.2,13.7c-2.1,3.4-5,6.7-8.6,9.9c-1.8,1.6-4.6,3.6-6.2,4.8
			c-0.7,0.5-1.6,0.5-2.4,0.1l-0.1,0c-1.3-0.8-1.3-2.7-0.1-3.5c6.5-4.5,16.6-13.2,17.1-24c0.3-7.1-5.2-13.3-12.4-13.3
			c-4.3,0-8.1,2.2-10.3,5.5c-2.3-3.4-6.2-5.6-10.6-5.5c-4.6,0.1-8.3,2.7-10.3,6.4"/>
		<path class="st2" d="M15.5,38c-2.8-4.5-4.2-9.1-4.2-13.7c0-9.2,7.5-16.7,16.7-16.7c3.8,0,7.4,1.3,10.3,3.5
			c2.9-2.3,6.5-3.5,10.3-3.5c4.6,0,8.8,1.9,11.8,4.9"/>
		<path class="st3" d="M16,22c-0.2,1-0.3,2.1-0.3,3.1c0,14.8,25.4,31,33.2,34.6c0.8,0.4,1.3,1.1,1.3,2c0,0,0,0,0,0
			c0,1.6-1.7,2.7-3.2,1.9c-8.4-4.4-17.5-11.1-22.8-15.8c-2.1-1.9-4-3.8-5.6-5.7"/>
	</g>
	<g>
		<g>
			
				<image style="overflow:visible;" width="130" height="132" xlink:href="FA7D1787BABC0B1F.png"  transform="matrix(1 0 0 1 -26.8275 -30)">
			</image>
		</g>
		<g>
			<path class="st4" d="M63.3,16.2c1.4,2.5,2.3,5.4,2.3,8.5c0,4.7-1.4,9.3-4.2,13.9c-2.1,3.4-5.1,6.8-8.7,10.1
				c-1.8,1.6-4.6,3.7-6.2,4.8C45.7,54,44.7,54,44,53.5l-0.1,0c-1.3-0.8-1.3-2.7-0.1-3.6c6.6-4.6,16.8-13.4,17.3-24.4
				c0.3-7.2-5.3-13.4-12.5-13.4c-4.3,0-8.2,2.2-10.4,5.6c-2.3-3.4-6.3-5.7-10.7-5.6c-4.6,0.1-8.4,2.7-10.5,6.5"/>
			<path class="st5" d="M15.1,38.6c-2.8-4.6-4.2-9.2-4.2-13.9c0-9.3,7.6-17,17-17c3.8,0,7.5,1.3,10.4,3.6c2.9-2.3,6.6-3.6,10.4-3.6
				c4.7,0,8.9,1.9,12,5"/>
			<path class="st6" d="M15.6,22.3c-0.2,1-0.3,2.1-0.3,3.2c0,15,25.8,31.5,33.6,35.1c0.8,0.4,1.3,1.1,1.3,2c0,0,0,0,0,0
				c0,1.7-1.7,2.7-3.2,2c-8.5-4.4-17.7-11.2-23.1-16c-2.1-1.9-4-3.8-5.6-5.8"/>
		</g>
	</g>
</g>
</svg>
