<?xml version="1.0" encoding="UTF-8"?>
<svg width="63px" height="53px" viewBox="0 0 63 53" version="1.1" xmlns="http://www.w3.org/2000/svg" xmlns:xlink="http://www.w3.org/1999/xlink">
    <!-- Generator: Sketch 63.1 (92452) - https://sketch.com -->
    <title>tigo</title>
    <desc>Created with Sketch.</desc>
    <g id="UI" stroke="none" stroke-width="1" fill="none" fill-rule="evenodd">
        <g id="Desktop-HD-Copy" transform="translate(-1292.000000, -2796.000000)">
            <g id="tigo" transform="translate(1292.000000, 2796.000000)">
                <path d="M5.96842105,53 C2.67212842,53 0,50.3305225 0,47.0375 L0,5.9625 C0,2.6694775 2.67212842,0 5.96842105,0 L57.0315789,0 C60.3278716,0 63,2.6694775 63,5.9625 L63,47.0375 C63,50.3305225 60.3278716,53 57.0315789,53 L5.96842105,53 Z" id="Fill-1" fill="#00377D"></path>
                <path d="M48.7495444,33.849349 L48.7495444,35.4851467 C48.7495444,36.1037178 48.4726864,37.0919416 48.0945178,37.7710461 C47.0593269,39.6314825 43.6130368,42 39.9205545,42 C36.2807564,42 33.2952532,40.134109 31.7819801,37.9103394 C31.3448744,37.2565791 31.026175,36.1037178 31.026175,35.402063 L31.026175,33.8194149 C31.026175,33.7844253 31.0545792,33.7560877 31.089569,33.7560877 L31.0923628,33.7560877 C31.1121194,33.7560877 31.1306786,33.765334 31.1425858,33.7811658 C33.0374201,36.3073361 35.9936543,38.3777767 39.9205545,38.3777767 C44.1893032,38.3777767 47.0373087,36.2848523 48.6334663,33.8146919 C48.6450408,33.7967315 48.6647974,33.7859552 48.6861504,33.7859552 C48.7211402,33.7859552 48.7495444,33.8143593 48.7495444,33.849349 L48.7495444,33.849349 Z M49.624288,24.8264188 C49.624288,26.9635126 48.6979911,28.5129006 46.8043541,28.5129006 C44.6442364,28.5129006 43.6977173,26.9635126 43.6977173,24.3641036 C43.6977173,22.1998695 44.6442364,20.6436965 46.5086709,20.6436965 C48.6462382,20.6436965 49.624288,22.1998695 49.624288,24.8264188 L49.624288,24.8264188 Z M40.3144219,24.8264188 C40.3144219,28.2989717 42.5793094,31.4292118 46.5086709,31.4292118 C50.7424963,31.4292118 53,28.2989717 53,24.3641036 C53,20.8868942 50.7424963,17.7302457 46.8043541,17.7302457 C42.5793094,17.7302457 40.3144219,20.8868942 40.3144219,24.8264188 L40.3144219,24.8264188 Z M40.9509559,14.9165751 C40.9509559,14.5423991 41.1395413,13.9524982 41.3856669,13.5441973 C42.0764815,12.4234653 44.2787067,11 46.7210706,11 C49.1388885,11 51.1978952,12.1227941 52.2022871,13.4583197 C52.4933139,13.8474628 52.7036515,14.5423991 52.7036515,14.9658666 L52.7036515,16.3460938 L52.6398584,16.3460938 C51.3846845,14.8227817 49.5998085,13.5720692 46.9867532,13.5720692 C44.1462645,13.5720692 42.0764815,14.8344892 41.0192058,16.3307276 L40.9509559,16.3307276 L40.9509559,14.9165751 Z M37.2039934,24.7914292 C38.0637034,24.7914292 38.8754521,25.4944145 38.8754521,26.2382431 L38.8754521,28.3366221 C38.8754521,30.701481 37.2787623,31.8463598 33.9869326,31.8463598 C30.4059386,31.8463598 26.7757194,29.4952041 26.7757194,25.0013669 C26.7757194,20.7793311 30.0179915,17.8266999 34.6606515,17.8266999 C37.4005612,17.8266999 38.6556686,19.2900108 38.6556686,20.6494837 L38.6556686,21.7291727 C38.6556686,21.7642289 38.6273309,21.7925665 38.5922747,21.7925665 L38.240049,21.7925665 C38.2252815,21.7925665 38.2109131,21.7873779 38.1994715,21.7778655 L38.1507121,21.7372217 C37.33291,21.0888495 35.8704584,20.6826108 34.3313088,20.6826108 C31.9043111,20.6826108 30.1389256,22.3437527 30.1389256,24.6370359 C30.1389256,28.2341811 32.4056091,28.9861917 34.3127496,28.9861917 C35.6303197,28.9861917 35.7396128,28.5129006 35.7396128,27.9965045 L35.7396128,26.9442218 C35.7396128,25.9562641 35.5411158,25.0985529 35.5411158,25.0915017 L35.4910925,24.8687256 C35.4821787,24.8290796 35.5123125,24.7914292 35.5528899,24.7914292 L37.2039934,24.7914292 L37.2039934,24.7914292 Z M21.6546445,17.1636933 C22.6852455,17.1636933 23.564579,16.3043856 23.564579,15.2586884 C23.564579,14.2131907 22.6852455,13.3774977 21.6546445,13.3774977 C20.6196532,13.3774977 19.7773716,14.2131907 19.7773716,15.2586884 C19.7773716,16.3043856 20.6196532,17.1636933 21.6546445,17.1636933 L21.6546445,17.1636933 Z M23.9658967,31.2282543 C25.3301641,31.2282543 25.8784919,30.6695514 25.8784919,29.2741576 L25.8784919,28.6349652 C25.8784919,28.5999755 25.8500877,28.5716379 25.815098,28.5716379 L25.2790099,28.5716379 C23.8585992,28.5716379 23.3004929,28.1657318 23.3004929,26.857812 L23.3004929,20.7809276 C23.3004929,19.1458616 22.4240863,18.3678416 20.9935645,18.3678416 L20.1252734,18.3678416 C20.0903502,18.3678416 20.061946,18.3961792 20.061946,18.4311688 L20.061946,27.1723195 C20.061946,29.8035251 21.4381205,31.2282543 23.9658967,31.2282543 L23.9658967,31.2282543 Z M10.9479161,16.0325842 C11.3814962,15.5342815 11.9477846,15.1346283 12.46538,15.1346283 L13.1535338,15.1346283 C13.18859,15.1346283 13.2169277,15.1630324 13.2169277,15.198022 L13.2169277,18.0113599 C13.2169277,18.0463495 13.245332,18.0747537 13.2803217,18.0747537 L17.6614234,18.0747537 C17.6964797,18.0747537 17.7248174,18.1031578 17.7248174,18.1381474 L17.7248174,19.4056894 C17.7248174,20.0829979 17.1266657,20.9458976 15.7817558,20.9458976 L13.2803217,20.9458976 C13.245332,20.9458976 13.2169277,20.9743018 13.2169277,21.0092914 L13.2169277,26.0354231 C13.2169277,27.7209779 13.9610917,28.3864458 15.248262,28.3864458 C16.2841845,28.3864458 17.0896138,28.240567 17.5941713,27.9280552 C17.6038832,27.9220019 17.6148591,27.9188754 17.6263006,27.9188754 L17.6614234,27.9188754 C17.6964797,27.9188754 17.7248174,27.947213 17.7248174,27.9822692 L17.7248174,29.0857724 C17.7248174,30.4002777 16.7574774,31.2504721 14.8698273,31.2504721 C11.5948937,31.2504721 10,29.4666004 10,26.4200427 L10,18.603323 C10,17.3297942 10.2379436,16.846392 10.9479161,16.0325842 L10.9479161,16.0325842 Z" id="Fill-3" fill="#FFFFFF"></path>
            </g>
        </g>
    </g>
</svg>