<?xml version="1.0" encoding="utf-8"?>
<!-- Generator: Adobe Illustrator 23.1.1, SVG Export Plug-In . SVG Version: 6.00 Build 0)  -->
<svg version="1.1" id="Capa_1" xmlns="http://www.w3.org/2000/svg" xmlns:xlink="http://www.w3.org/1999/xlink" x="0px" y="0px" viewBox="0 0 69 50" style="enable-background:new 0 0 69 50;" xml:space="preserve">
    <style type="text/css">
        .st0 {
            fill: #FFFFFF;
        }

    </style>
    <g id="Ilustración_1_1_">
        <g>
            <g>
                <path class="st0" d="M1.9,8.5c0.7-0.8,1.6-1.4,2.4-1.4h1.1c0.1,0,0.1,0,0.1,0.1v4.4c0,0.1,0,0.1,0.1,0.1h7c0.1,0,0.1,0,0.1,0.1v2
				c0,1.1-1,2.5-3.1,2.5h-4c-0.1,0-0.1,0-0.1,0.1v8C5.5,27,6.7,28,8.7,28c1.6,0,2.9-0.2,3.7-0.7c0,0,0,0,0.1,0h0.1
				c0.1,0,0.1,0,0.1,0.1v1.8c0,2.1-1.5,3.4-4.5,3.4c-5.2,0-7.8-2.8-7.8-7.7V12.6C0.5,10.5,0.9,9.8,1.9,8.5 M22.6,32.6
				c2.2,0,3-0.9,3-3.1v-1c0-0.1,0-0.1-0.1-0.1h-0.9c-2.3,0-3.2-0.6-3.2-2.7v-9.6c0-2.6-1.4-3.8-3.7-3.8h-1.4c-0.1,0-0.1,0-0.1,0.1
				v13.8C16.4,30.3,18.5,32.6,22.6,32.6 M18.9,10.3c1.6,0,3-1.4,3-3c0-1.7-1.4-3-3-3s-3,1.3-3,3C16,8.9,17.3,10.3,18.9,10.3
				 M43.5,22.4c1.4,0,2.7,1.1,2.7,2.3v3.3c0,3.8-2.5,5.6-7.8,5.6c-5.7,0-11.4-3.7-11.4-10.8c0-6.7,5.2-11.3,12.5-11.3
				c4.4,0,6.4,2.3,6.4,4.5v1.7c0,0.1,0,0.1-0.1,0.1h-0.6c0,0,0,0-0.1,0L45,17.5c-1.3-1-3.6-1.7-6.1-1.7c-3.9,0-6.7,2.6-6.7,6.3
				c0,5.7,3.6,6.9,6.6,6.9c2.1,0,2.3-0.8,2.3-1.6v-1.7c0-1.6-0.3-2.9-0.3-3l-0.1-0.4c0-0.1,0-0.1,0.1-0.1h2.7 M49.5,6.8
				c0-0.6,0.3-1.5,0.7-2.2c1.1-1.8,4.6-4.1,8.4-4.1c3.8,0,7.1,1.8,8.6,3.9C67.8,5,68,6.1,68,6.8v2.2h-0.1c-2-2.4-4.8-4.4-8.9-4.4
				c-4.5,0-7.8,2-9.4,4.4h-0.1V6.8z M48.5,22.5c0,5.5,3.6,10.4,9.8,10.4c6.7,0,10.2-5,10.2-11.1c0-5.5-3.6-10.5-9.8-10.5
				C52,11.2,48.5,16.2,48.5,22.5 M63.2,22.5c0,3.4-1.5,5.9-4.5,5.9c-3.4,0-4.9-2.5-4.9-6.6c0-3.4,1.5-5.9,4.5-5.9
				C61.6,15.8,63.2,18.3,63.2,22.5 M61.8,36.7v2.6c0,1-0.4,2.6-1,3.6c-1.6,3-7.1,6.7-12.9,6.7c-5.8,0-10.4-3-12.9-6.5
				c-0.7-1-1.2-2.9-1.2-4v-2.5c0-0.1,0-0.1,0.1-0.1l0,0H34c3,4,7.7,7.3,13.9,7.3c6.8,0,11.2-3.3,13.8-7.3c0,0,0,0,0.1,0
				C61.8,36.6,61.8,36.7,61.8,36.7" />
            </g>
        </g>
    </g>
</svg>
