<?xml version="1.0" encoding="utf-8"?>
<!-- Generator: Adobe Illustrator 23.0.2, SVG Export Plug-In . SVG Version: 6.00 Build 0)  -->
<svg version="1.1" id="Capa_1" xmlns="http://www.w3.org/2000/svg" xmlns:xlink="http://www.w3.org/1999/xlink" x="0px" y="0px" width="100px"
	 viewBox="0 0 100.6 84.7" style="enable-background:new 0 0 100.6 84.7;" xml:space="preserve">
<style type="text/css">
	.st0{fill:#ffffff;}
	.st1{fill:#00377D;}
</style>
<g id="Ilustración_1_1_">
	<g>
		<g>
			<path class="st0" d="M91.1,84.7H9.5c-5.3,0-9.5-4.3-9.5-9.5V9.5C0,4.3,4.3,0,9.5,0h81.6c5.3,0,9.5,4.3,9.5,9.5v65.7
				C100.6,80.5,96.4,84.7,91.1,84.7"/>
			<path class="st1" d="M17.7,26.9c0.7-0.8,1.6-1.4,2.4-1.4h1.1c0.1,0,0.1,0,0.1,0.1V30c0,0.1,0,0.1,0.1,0.1h7c0.1,0,0.1,0,0.1,0.1
				v2c0,1.1-1,2.5-3.1,2.5h-4c-0.1,0-0.1,0-0.1,0.1v8c0,2.7,1.2,3.7,3.2,3.7c1.6,0,2.9-0.2,3.7-0.7c0,0,0,0,0.1,0h0.1
				c0.1,0,0.1,0,0.1,0.1v1.8c0,2.1-1.5,3.4-4.5,3.4c-5.2,0-7.8-2.8-7.8-7.7V31C16.2,28.9,16.6,28.2,17.7,26.9 M38.5,51.1
				c2.2,0,3-0.9,3-3.1v-1c0-0.1,0-0.1-0.1-0.1h-0.9c-2.3,0-3.2-0.6-3.2-2.7v-9.7c0-2.6-1.4-3.8-3.7-3.8h-1.4c-0.1,0-0.1,0-0.1,0.1
				v13.9C32.2,48.8,34.4,51.1,38.5,51.1 M34.8,28.7c1.6,0,3-1.4,3-3c0-1.7-1.4-3-3-3c-1.6,0-3,1.3-3,3
				C31.8,27.3,33.1,28.7,34.8,28.7 M59.5,40.8c1.4,0,2.7,1.1,2.7,2.3v3.3c0,3.8-2.5,5.6-7.8,5.6c-5.7,0-11.5-3.7-11.5-10.9
				c0-6.7,5.2-11.4,12.6-11.4c4.4,0,6.4,2.3,6.4,4.5v1.7c0,0.1,0,0.1-0.1,0.1h-0.6c0,0,0,0-0.1,0L61,35.9c-1.3-1-3.6-1.7-6.1-1.7
				c-3.9,0-6.7,2.6-6.7,6.3c0,5.7,3.6,6.9,6.6,6.9c2.1,0,2.3-0.8,2.3-1.6v-1.7c0-1.6-0.3-2.9-0.3-3l-0.1-0.4c0-0.1,0-0.1,0.1-0.1
				H59.5 M65.5,25.1c0-0.6,0.3-1.5,0.7-2.2c1.1-1.8,4.6-4.1,8.5-4.1c3.8,0,7.1,1.8,8.7,3.9c0.5,0.6,0.8,1.7,0.8,2.4v2.2h-0.1
				c-2-2.4-4.8-4.4-9-4.4c-4.5,0-7.8,2-9.5,4.4h-0.1V25.1z M64.5,40.9c0,5.5,3.6,10.5,9.9,10.5c6.7,0,10.3-5,10.3-11.2
				c0-5.5-3.6-10.6-9.9-10.6C68.1,29.6,64.5,34.6,64.5,40.9 M79.3,40.9c0,3.4-1.5,5.9-4.5,5.9c-3.4,0-4.9-2.5-4.9-6.6
				c0-3.4,1.5-5.9,4.5-5.9C77.7,34.2,79.3,36.7,79.3,40.9 M77.9,55.2v2.6c0,1-0.4,2.6-1,3.6c-1.6,3-7.1,6.7-13,6.7
				c-5.8,0-10.5-3-13-6.5c-0.7-1-1.2-2.9-1.2-4v-2.5c0-0.1,0-0.1,0.1-0.1h0c0,0,0.1,0,0.1,0c3,4,7.7,7.3,14,7.3
				c6.8,0,11.3-3.3,13.9-7.3c0,0,0,0,0.1,0C77.9,55.1,77.9,55.2,77.9,55.2"/>
		</g>
	</g>
</g>
</svg>